<svg xmlns="http://www.w3.org/2000/svg" xmlns:xlink="http://www.w3.org/1999/xlink" width="0" height="0" style="position:absolute">
	
		<symbol id="article_favorite" viewBox="">
			<path d="M1.414 30L30 1.414 58.586 30 30 58.586 1.414 30z" stroke="#9B9B9B" stroke-width="2"></path><path fill-rule="evenodd" clip-rule="evenodd" d="M39.974 18.149c.364.143.653.369.868.677.214.309.322.65.322 1.025v21.297c0 .374-.108.716-.322 1.024a1.86 1.86 0 0 1-.868.678 1.86 1.86 0 0 1-.727.132c-.528 0-.986-.177-1.371-.529l-7.286-7.006-7.287 7.006a1.97 1.97 0 0 1-1.371.545c-.254 0-.496-.05-.727-.148a1.861 1.861 0 0 1-.868-.678 1.754 1.754 0 0 1-.322-1.024V19.85c0-.374.108-.716.322-1.024.215-.308.504-.534.868-.677.231-.1.473-.149.727-.149h17.315c.254 0 .496.05.727.149zM32.06 33.927l6.989 6.708v-20.52H22.13v20.52l6.989-6.708 1.47-1.404 1.471 1.404z" fill="#9B9B9B"></path>
		</symbol>
	
		<symbol id="article_fb" viewBox="">
			<path d="M1.414 30L30 1.414 58.586 30 30 58.586 1.414 30z" stroke="#9B9B9B" stroke-width="2"></path><path fill-rule="evenodd" clip-rule="evenodd" d="M35.927 16.006L32.329 16c-4.042 0-6.654 2.705-6.654 6.89v3.178h-3.617a.568.568 0 0 0-.566.571v4.604c0 .315.253.57.566.57h3.617V43.43c0 .316.253.571.566.571h4.72a.568.568 0 0 0 .565-.57V31.812h4.23a.568.568 0 0 0 .565-.57l.002-4.604a.575.575 0 0 0-.166-.404.563.563 0 0 0-.4-.167h-4.23v-2.693c0-1.295.305-1.952 1.976-1.952h2.423a.568.568 0 0 0 .566-.572v-4.274a.569.569 0 0 0-.565-.571z" fill="#9B9B9B"></path>
		</symbol>
	
		<symbol id="article_in" viewBox="">
			<path d="M1.414 30L30 1.414 58.586 30 30 58.586 1.414 30z" stroke="#9B9B9B" stroke-width="2"></path><path fill-rule="evenodd" clip-rule="evenodd" d="M24.952 17h11.202c3.805 0 6.9 3.095 6.9 6.9v11.2c0 3.805-3.095 6.9-6.9 6.9H24.952a6.907 6.907 0 0 1-6.899-6.9V23.9c0-3.805 3.095-6.9 6.9-6.9zm11.202 22.782c2.581 0 4.681-2.1 4.681-4.681V23.899c0-2.58-2.1-4.68-4.68-4.68H24.951c-2.58 0-4.68 2.1-4.68 4.68v11.202c0 2.581 2.1 4.681 4.68 4.68h11.202z" fill="#9B9B9B"></path><path fill-rule="evenodd" clip-rule="evenodd" d="M24.053 29.5c0-3.584 2.916-6.5 6.5-6.5 3.585 0 6.5 2.916 6.5 6.5s-2.915 6.5-6.5 6.5a6.507 6.507 0 0 1-6.5-6.5zm2.239 0a4.267 4.267 0 0 0 4.261 4.262 4.267 4.267 0 0 0 4.262-4.262 4.267 4.267 0 0 0-4.261-4.262 4.267 4.267 0 0 0-4.262 4.262z" fill="#9B9B9B"></path><path fill-rule="evenodd" clip-rule="evenodd" d="M36.553 22a1.507 1.507 0 0 0-1.5 1.5c0 .394.161.781.44 1.06.28.28.666.44 1.06.44a1.506 1.506 0 0 0 1.501-1.5c0-.395-.16-.783-.44-1.06a1.506 1.506 0 0 0-1.06-.44z" fill="#9B9B9B"></path>
		</symbol>
	
		<symbol id="article_print" viewBox="">
			<path d="M1.414 30L30 1.414 58.586 30 30 58.586 1.414 30z" stroke="#9B9B9B" stroke-width="2"></path><path fill-rule="evenodd" clip-rule="evenodd" d="M38.582 20.74h.713c2.263 0 4.105 1.856 4.105 4.137v6.674c0 2.28-1.842 4.137-4.105 4.137h-.72v5.246A2.062 2.062 0 0 1 36.528 43H23.799a2.062 2.062 0 0 1-2.05-2.066v-5.246h-.644c-2.263 0-4.105-1.857-4.105-4.138v-6.673c0-2.28 1.842-4.138 4.105-4.138h.65v-1.601c0-2.281 1.842-4.138 4.105-4.138h8.617c2.263 0 4.105 1.857 4.105 4.138v1.601zm-12.728-4.173c-1.405 0-2.55 1.155-2.55 2.57v1.602h13.712v-1.601c0-1.416-1.146-2.571-2.55-2.571h-8.612zm11.168 24.379a.5.5 0 0 1-.495.499H23.799a.5.5 0 0 1-.495-.5v-8.652h13.718v8.653zm2.273-6.819c1.405 0 2.55-1.155 2.55-2.57v-6.674c0-1.416-1.145-2.571-2.55-2.571h-18.19c-1.405 0-2.55 1.155-2.55 2.57v6.674c0 1.416 1.145 2.571 2.55 2.571h.65v-1.834h-1.146a.777.777 0 0 1-.777-.783c0-.435.346-.784.777-.784h18.997c.432 0 .777.349.777.784a.777.777 0 0 1-.777.783h-1.024v1.834h.713z" fill="#9B9B9B"></path><path d="M38.582 20.74h-.15v.15h.15v-.15zm-.006 14.948v-.15h-.15v.15h.15zm-16.827 0h.15v-.15h-.15v.15zm.006-14.949v.15h.15v-.15h-.15zm1.549 0h-.15v.15h.15v-.15zm13.712 0v.15h.15v-.15h-.15zM23.304 32.293v-.15h-.15v.15h.15zm13.718 0h.15v-.15h-.15v.15zm-15.267 1.834v.15h.15v-.15h-.15zm0-1.834h.15v-.15h-.15v.15zm16.827 0v-.15h-.15v.15h.15zm0 1.834h-.15v.15h.15v-.15zm.713-13.538h-.713v.3h.713v-.3zm4.255 4.288c0-2.362-1.908-4.288-4.255-4.288v.3c2.179 0 3.955 1.789 3.955 3.988h.3zm0 6.674v-6.674h-.3v6.674h.3zm-4.255 4.287c2.347 0 4.255-1.925 4.255-4.288h-.3c0 2.2-1.776 3.988-3.955 3.988v.3zm-.72 0h.72v-.3h-.72v.3zm.15 5.096v-5.246h-.3v5.246h.3zm-2.198 2.216a2.212 2.212 0 0 0 2.199-2.216h-.3a1.912 1.912 0 0 1-1.9 1.916v.3zm-12.728 0h12.728v-.3H23.799v.3zm-2.2-2.216c0 1.22.987 2.216 2.2 2.216v-.3c-1.045 0-1.9-.86-1.9-1.916h-.3zm0-5.246v5.246h.3v-5.246h-.3zm-.494.15h.644v-.3h-.644v.3zM16.85 31.55c0 2.363 1.908 4.288 4.255 4.288v-.3c-2.179 0-3.955-1.789-3.955-3.987h-.3zm0-6.673v6.674h.3v-6.674h-.3zm4.255-4.288c-2.347 0-4.255 1.926-4.255 4.288h.3c0-2.199 1.776-3.988 3.955-3.988v-.3zm.65 0h-.65v.3h.65v-.3zm-.15-1.451v1.601h.3v-1.601h-.3zm4.255-4.288c-2.347 0-4.255 1.925-4.255 4.288h.3c0-2.2 1.776-3.988 3.954-3.988v-.3zm8.617 0H25.86v.3h8.617v-.3zm4.255 4.288c0-2.363-1.908-4.288-4.255-4.288v.3c2.179 0 3.955 1.789 3.955 3.988h.3zm0 1.601v-1.601h-.3v1.601h.3zm-15.279-1.601c0-1.335 1.08-2.421 2.4-2.421v-.3c-1.488 0-2.7 1.223-2.7 2.72h.3zm0 1.601v-1.601h-.3v1.601h.3zm13.563-.15H23.304v.3h13.712v-.3zm-.15-1.451v1.601h.3v-1.601h-.3zm-2.4-2.421c1.32 0 2.4 1.086 2.4 2.42h.3c0-1.497-1.212-2.72-2.7-2.72v.3zm-8.612 0h8.612v-.3h-8.612v.3zm10.673 24.878a.65.65 0 0 0 .645-.65h-.3a.35.35 0 0 1-.345.35v.3zm-12.728 0h12.728v-.3H23.799v.3zm-.645-.65c0 .355.29.65.645.65v-.3a.35.35 0 0 1-.346-.35h-.3zm0-8.652v8.653h.3v-8.653h-.3zm13.868-.15H23.304v.3h13.718v-.3zm.15 8.803v-8.653h-.3v8.653h.3zm4.524-9.39c0 1.335-1.08 2.421-2.4 2.421v.3c1.488 0 2.7-1.223 2.7-2.72h-.3zm0-6.673v6.673h.3v-6.673h-.3zm-2.4-2.421c1.32 0 2.4 1.086 2.4 2.42h.3c0-1.497-1.212-2.72-2.7-2.72v.3zm-18.191 0h18.19v-.3h-18.19v.3zm-2.4 2.42c0-1.334 1.079-2.42 2.4-2.42v-.3c-1.49 0-2.7 1.223-2.7 2.72h.3zm0 6.674v-6.673h-.3v6.673h.3zm2.4 2.421c-1.321 0-2.4-1.086-2.4-2.42h-.3c0 1.497 1.21 2.72 2.7 2.72v-.3zm.65 0h-.65v.3h.65v-.3zm-.15-1.684v1.834h.3v-1.834h-.3zm-.996.15h1.146v-.3h-1.146v.3zm-.927-.933c0 .517.412.933.927.933v-.3a.627.627 0 0 1-.627-.633h-.3zm.927-.934a.927.927 0 0 0-.927.934h.3c0-.354.28-.634.627-.634v-.3zm18.997 0H20.61v.3h18.997v-.3zm.927.934a.927.927 0 0 0-.927-.934v.3c.348 0 .627.28.627.634h.3zm-.927.933a.927.927 0 0 0 .927-.933h-.3a.627.627 0 0 1-.627.633v.3zm-1.024 0h1.024v-.3h-1.024v.3zm.15 1.684v-1.834h-.3v1.834h.3zm.563-.15h-.713v.3h.713v-.3z" fill="#979797"></path><path fill-rule="evenodd" clip-rule="evenodd" d="M24.96 36.6h9.68c.422 0 .76-.356.76-.8 0-.444-.338-.8-.76-.8h-9.68c-.422 0-.76.356-.76.8 0 .444.344.8.76.8zm10.485.8H25.76c-.422 0-.76.356-.76.8 0 .444.338.8.76.8h9.68c.422 0 .76-.355.76-.8 0-.444-.338-.8-.755-.8zm3.961-13.6h-1.612a.794.794 0 0 0-.794.8c0 .444.353.8.794.8h1.612a.794.794 0 0 0 .794-.8c0-.444-.353-.8-.794-.8z" fill="#9B9B9B"></path>
		</symbol>
	
		<symbol id="article_send" viewBox="">
			<path d="M1.414 30L30 1.414 58.586 30 30 58.586 1.414 30z" stroke="#9B9B9B" stroke-width="2"></path><path fill-rule="evenodd" clip-rule="evenodd" d="M44.686 23.552l-6.237-6.243a1 1 0 0 0-.732-.309c-.13 0-.265.027-.406.081-.422.184-.633.504-.633.96v3.122h-2.6c-1.148 0-2.212.06-3.192.178-.98.12-1.843.285-2.59.496-.748.211-1.422.474-2.023.789a8.64 8.64 0 0 0-1.535 1 6.337 6.337 0 0 0-1.113 1.203c-.32.45-.574.891-.764 1.325-.189.434-.34.91-.454 1.43-.114.521-.19 1.009-.228 1.464-.038.455-.057.949-.057 1.48 0 .607.095 1.268.285 1.983.19.716.398 1.333.625 1.854.227.52.496 1.06.804 1.617.309.559.523.93.642 1.114.119.184.233.352.341.504.108.14.25.211.422.211.044 0 .108-.01.195-.032.25-.12.358-.303.325-.553-.487-3.642-.086-6.206 1.202-7.69 1.246-1.42 3.617-2.13 7.115-2.13h2.6v3.121c0 .456.21.775.633.96.14.054.276.08.406.08a.966.966 0 0 0 .731-.308l6.238-6.244a1 1 0 0 0 .309-.731 1 1 0 0 0-.309-.732z" fill="#9B9B9B"></path><path fill-rule="evenodd" clip-rule="evenodd" d="M40.531 32.643c-.206-.087-.395-.043-.569.13-.281.26-.574.46-.877.601-.195.108-.293.265-.293.47v3.478c0 .714-.254 1.326-.763 1.835a2.503 2.503 0 0 1-1.836.764H22.678a2.503 2.503 0 0 1-1.835-.764 2.503 2.503 0 0 1-.764-1.835V23.806a2.5 2.5 0 0 1 .764-1.836 2.502 2.502 0 0 1 1.835-.763h1.82a.752.752 0 0 0 .26-.065c.606-.368 1.326-.693 2.16-.975.282-.054.422-.227.422-.52a.5.5 0 0 0-.154-.365.5.5 0 0 0-.365-.154h-4.143c-1.288 0-2.39.457-3.305 1.372S18 22.517 18 23.806v13.515c0 1.29.458 2.391 1.373 3.306S21.39 42 22.678 42h13.516c1.288 0 2.39-.458 3.306-1.373.915-.915 1.372-2.017 1.372-3.306v-4.207c0-.216-.114-.373-.341-.471z" fill="#9B9B9B"></path>
		</symbol>
	
		<symbol id="article_vk" viewBox="">
			<path d="M1.414 30L30 1.414 58.586 30 30 58.586 1.414 30z" stroke="#9B9B9B" stroke-width="2"></path><path fill-rule="evenodd" clip-rule="evenodd" d="M44.83 38.16a2.35 2.35 0 0 0-.108-.218c-.555-1.04-1.616-2.318-3.182-3.832l-.033-.035-.017-.017-.017-.017h-.017c-.71-.705-1.16-1.18-1.349-1.422-.345-.462-.422-.93-.234-1.405.134-.358.634-1.115 1.5-2.27.456-.613.816-1.104 1.083-1.474 1.921-2.66 2.755-4.358 2.499-5.098l-.1-.173c-.066-.104-.238-.2-.515-.286-.279-.087-.634-.101-1.067-.043l-4.798.034c-.078-.028-.19-.026-.334.009l-.216.052-.084.044-.066.052a.755.755 0 0 0-.183.182 1.2 1.2 0 0 0-.167.303 28.837 28.837 0 0 1-1.783 3.901 37.143 37.143 0 0 1-1.133 1.864c-.344.526-.633.913-.866 1.162a6.148 6.148 0 0 1-.633.598c-.19.15-.333.214-.433.19-.1-.023-.194-.046-.284-.069a1.138 1.138 0 0 1-.374-.425 1.963 1.963 0 0 1-.192-.676 7.764 7.764 0 0 1-.058-.702c-.006-.197-.003-.474.008-.832.012-.359.017-.601.017-.729 0-.439.008-.916.024-1.43.017-.515.03-.922.042-1.222.012-.3.017-.619.017-.954 0-.335-.02-.598-.059-.79a2.768 2.768 0 0 0-.174-.554.925.925 0 0 0-.341-.416 1.884 1.884 0 0 0-.559-.234c-.588-.139-1.338-.214-2.25-.226-2.065-.023-3.392.116-3.981.417a2.26 2.26 0 0 0-.633.52c-.2.254-.228.393-.084.416.667.104 1.139.352 1.416.745l.1.208c.079.15.156.417.234.798a8.3 8.3 0 0 1 .15 1.265c.055.845.055 1.567 0 2.168-.056.601-.108 1.07-.158 1.404-.05.336-.125.607-.225.815a3.5 3.5 0 0 1-.2.382.292.292 0 0 1-.084.086 1.204 1.204 0 0 1-.45.087c-.155 0-.344-.08-.566-.243a4.06 4.06 0 0 1-.691-.667c-.24-.284-.509-.68-.809-1.188-.3-.509-.61-1.11-.933-1.803l-.266-.503a43.89 43.89 0 0 1-.683-1.413 27.764 27.764 0 0 1-.766-1.795 1.14 1.14 0 0 0-.4-.555l-.084-.052a1.127 1.127 0 0 0-.266-.147 1.714 1.714 0 0 0-.383-.113l-4.566.035c-.466 0-.783.11-.95.33l-.066.103a.58.58 0 0 0-.05.278c0 .127.033.283.1.468a58.261 58.261 0 0 0 2.174 4.716c.783 1.514 1.464 2.734 2.041 3.658a43.174 43.174 0 0 0 1.766 2.618c.6.821.997 1.347 1.191 1.578.195.232.348.405.459.52l.416.416c.267.278.658.61 1.175.997a19.95 19.95 0 0 0 1.716 1.145c.628.376 1.358.682 2.19.919a7.294 7.294 0 0 0 2.433.286h1.916c.39-.035.683-.162.884-.382l.066-.086c.044-.07.086-.176.125-.32.039-.145.058-.304.058-.478a5.937 5.937 0 0 1 .108-1.343c.083-.399.178-.7.284-.902a2.21 2.21 0 0 1 .358-.51c.133-.14.228-.224.283-.253.056-.029.1-.048.133-.06.267-.093.58-.003.942.269.361.272.7.607 1.016 1.006.317.398.697.846 1.141 1.343.445.497.834.867 1.167 1.11l.333.208c.222.139.511.266.867.382.355.115.665.144.932.086l4.265-.07c.422 0 .75-.072.983-.216.234-.145.372-.304.417-.477.045-.173.047-.37.008-.59a2.247 2.247 0 0 0-.117-.459z" fill="#9B9B9B"></path>
		</symbol>
	
		<symbol id="burger" viewBox="">
			<path clip-rule="evenodd" d="M.981 2H25.02A.991.991 0 0 0 26 1c0-.552-.44-1-.981-1H.98A.991.991 0 0 0 0 1c0 .552.44 1 .981 1zm0 7H25.02A.991.991 0 0 0 26 8c0-.552-.44-1-.981-1H.98A.991.991 0 0 0 0 8c0 .552.44 1 .981 1zm0 8H25.02a.991.991 0 0 0 .98-1c0-.552-.44-1-.981-1H.98A.991.991 0 0 0 0 16c0 .552.44 1 .981 1z"></path>
		</symbol>
	
		<symbol id="burger_opened" viewBox="">
			<path fill-rule="evenodd" clip-rule="evenodd" d="M.794 2.209l16.997 16.997a.991.991 0 0 0 1.401-.014.991.991 0 0 0 .014-1.4L2.208.794a.991.991 0 0 0-1.4.014.991.991 0 0 0-.014 1.4z" fill="#fff"></path><path fill-rule="evenodd" clip-rule="evenodd" d="M2.608 19.105L19.605 2.108a.991.991 0 0 0-.013-1.4.991.991 0 0 0-1.401-.014L1.194 17.69a.991.991 0 0 0 .013 1.4.991.991 0 0 0 1.401.014z" fill="#fff"></path>
		</symbol>
	
		<symbol id="header-fb" viewBox="">
			<path clip-rule="evenodd" d="M12.51.005L9.393 0C5.89 0 3.625 2.222 3.625 5.66v2.61H.49a.48.48 0 0 0-.49.47v3.78c0 .26.22.47.49.47h3.135v9.541c0 .26.22.469.49.469h4.091a.48.48 0 0 0 .49-.469V12.99h3.666a.48.48 0 0 0 .49-.47l.002-3.78a.46.46 0 0 0-.144-.332.502.502 0 0 0-.347-.138H8.696V6.058c0-1.064.265-1.603 1.713-1.603l2.101-.001c.27 0 .49-.21.49-.47V.475a.48.48 0 0 0-.49-.47z"></path>
		</symbol>
	
		<symbol id="header-in" viewBox="">
			<path clip-rule="evenodd" d="M5.674 0h9.652A5.68 5.68 0 0 1 21 5.674v9.652A5.68 5.68 0 0 1 15.326 21H5.674A5.68 5.68 0 0 1 0 15.326V5.674A5.68 5.68 0 0 1 5.674 0zm9.652 19.303a3.982 3.982 0 0 0 3.977-3.977V5.674a3.982 3.982 0 0 0-3.977-3.977H5.674a3.982 3.982 0 0 0-3.977 3.977v9.652a3.982 3.982 0 0 0 3.977 3.977h9.652z"></path><path clip-rule="evenodd" d="M14.388 6.61a5.46 5.46 0 0 1 1.551 3.083 5.463 5.463 0 0 1-1.023 4.083 5.463 5.463 0 0 1-3.61 2.163 5.457 5.457 0 0 1-4.082-1.023 5.464 5.464 0 0 1-2.163-3.61 5.464 5.464 0 0 1 1.022-4.083 5.463 5.463 0 0 1 3.61-2.163 5.495 5.495 0 0 1 4.695 1.55zm-5.984 6.715c.755.56 1.683.793 2.612.655a3.522 3.522 0 0 0 2.964-3.996A3.498 3.498 0 0 0 10.5 6.98a3.516 3.516 0 0 0-2.825 1.423 3.495 3.495 0 0 0-.655 2.612c.138.93.63 1.75 1.384 2.31zM16.56 4.44A1.51 1.51 0 0 0 15.5 4 1.506 1.506 0 0 0 14 5.5 1.506 1.506 0 0 0 15.5 7 1.506 1.506 0 0 0 17 5.5c0-.395-.16-.781-.44-1.06z"></path>
		</symbol>
	
		<symbol id="header-vk" viewBox="">
			<path clip-rule="evenodd" d="M32.825 17.16a2.307 2.307 0 0 0-.112-.218c-.572-1.04-1.666-2.318-3.282-3.832l-.034-.034-.017-.018-.017-.017h-.017c-.733-.705-1.198-1.18-1.392-1.422-.355-.462-.435-.93-.24-1.405.137-.358.652-1.115 1.546-2.27.47-.613.841-1.104 1.116-1.474 1.982-2.66 2.841-4.358 2.578-5.098l-.103-.173c-.069-.104-.246-.2-.532-.286-.287-.087-.653-.101-1.1-.043L26.27.904c-.08-.028-.195-.026-.344.009l-.224.052-.086.044-.068.052a.765.765 0 0 0-.189.182 1.19 1.19 0 0 0-.171.303 28.44 28.44 0 0 1-1.84 3.901 36.939 36.939 0 0 1-1.168 1.864c-.355.526-.652.913-.893 1.162a6.25 6.25 0 0 1-.653.598c-.195.15-.343.214-.446.19a11.97 11.97 0 0 1-.293-.069 1.149 1.149 0 0 1-.386-.425 1.914 1.914 0 0 1-.198-.676 7.524 7.524 0 0 1-.06-.702 14.77 14.77 0 0 1 .009-.832c.012-.359.017-.602.017-.729 0-.439.009-.916.026-1.43.017-.515.03-.922.043-1.222.011-.3.017-.619.017-.954 0-.335-.02-.598-.06-.789-.04-.19-.1-.376-.18-.555a.933.933 0 0 0-.353-.416 1.975 1.975 0 0 0-.575-.234c-.607-.139-1.38-.214-2.32-.226-2.13-.023-3.5.116-4.106.417-.24.127-.459.3-.653.52-.207.254-.235.393-.086.416.687.104 1.174.352 1.46.745l.103.208c.08.15.16.417.24.798.081.381.133.803.155 1.266.058.843.058 1.566 0 2.167-.057.601-.111 1.07-.163 1.404a2.83 2.83 0 0 1-.232.815 3.468 3.468 0 0 1-.206.382.298.298 0 0 1-.086.086 1.277 1.277 0 0 1-.464.087c-.16 0-.355-.08-.584-.243a4.136 4.136 0 0 1-.713-.667c-.246-.284-.524-.68-.833-1.188-.31-.509-.63-1.11-.962-1.803l-.275-.503a43.417 43.417 0 0 1-.705-1.413 27.371 27.371 0 0 1-.79-1.795 1.142 1.142 0 0 0-.412-.555l-.086-.052a1.173 1.173 0 0 0-.275-.147 1.81 1.81 0 0 0-.395-.113L1.1.87C.619.87.292.98.12 1.2l-.068.103A.565.565 0 0 0 0 1.58c0 .127.034.283.103.468a57.451 57.451 0 0 0 2.242 4.716c.808 1.514 1.51 2.734 2.105 3.658a43.165 43.165 0 0 0 1.82 2.618c.619.821 1.028 1.347 1.229 1.578.2.232.358.405.472.52l.43.416c.275.278.678.61 1.211.997.533.388 1.123.77 1.77 1.145s1.4.682 2.26.919a7.738 7.738 0 0 0 2.508.286h1.976c.4-.035.704-.162.91-.381l.069-.087a1.19 1.19 0 0 0 .129-.32c.04-.145.06-.304.06-.478a5.76 5.76 0 0 1 .111-1.343c.086-.399.184-.7.293-.902a2.18 2.18 0 0 1 .369-.51c.137-.14.235-.224.292-.253a1.23 1.23 0 0 1 .137-.06c.275-.093.599-.003.971.269.373.271.722.607 1.049 1.005.326.4.718.847 1.177 1.344.458.497.859.867 1.202 1.11l.344.208c.23.139.527.266.894.381.366.116.686.145.962.087l4.398-.07c.435 0 .773-.072 1.014-.216.24-.144.383-.304.43-.477.045-.173.047-.37.008-.59a2.148 2.148 0 0 0-.121-.459z"></path>
		</symbol>
	
		<symbol id="heart" viewBox="">
			<path fill="#fff" d="M2.609 2.683h2.609v2.609H2.609zm32.173 0h2.609v2.609h-2.609zm-13.043 0h2.609v2.609h-2.609zM2.609 20.944h2.609v2.609H2.609zm32.173 0h2.609v2.609h-2.609zM13.043 28.77h5.217v2.609h-5.217zm8.696 0h5.217v2.609h-5.217zM15.652 2.683h2.609v2.609h-2.609zm2.609 2.609h3.478v2.609h-3.478zm8.695 20.87h5.217v2.609h-5.217zm-19.13 0h5.217v2.609H7.826zm-2.608-2.609h2.609v2.609H5.218zm26.956 0h2.609v2.609h-2.609zm-13.913 7.826h3.478v2.609h-3.478z"></path><path fill="#fff" d="M5.218.075h10.435v2.609H5.218zm19.13 0h10.435v2.609H24.348zM0 5.292h2.609v15.652H0zm37.391 0H40v15.652h-2.609z"></path>
		</symbol>
	
		<symbol id="lang" viewBox="">
			<path fill-rule="evenodd" clip-rule="evenodd" d="M16.714 2.786a9.43 9.43 0 0 0-6.585-2.78 1.43 1.43 0 0 0-.258 0 9.43 9.43 0 0 0-6.585 2.78A9.433 9.433 0 0 0 .506 9.5c0 2.536.987 4.92 2.78 6.714a9.43 9.43 0 0 0 6.585 2.78 1.405 1.405 0 0 0 .258 0 9.43 9.43 0 0 0 6.585-2.78 9.433 9.433 0 0 0 2.78-6.714c0-2.536-.987-4.92-2.78-6.714zm-12.63.798a8.32 8.32 0 0 1 3.562-2.116c-.3.346-.592.744-.864 1.184a11.247 11.247 0 0 0-.897 1.816h-2.57c.234-.31.49-.605.77-.884zm1.42 2.013H2.597a8.3 8.3 0 0 0-.943 3.339H4.98c.044-1.153.223-2.281.526-3.34zm-2.908 7.806a8.3 8.3 0 0 1-.943-3.339h3.326c.044 1.153.223 2.281.526 3.34H2.596zm.72 1.13c.233.308.49.604.768.883a8.322 8.322 0 0 0 3.562 2.116 9.067 9.067 0 0 1-.863-1.184 11.243 11.243 0 0 1-.898-1.816h-2.57zm6.12 0v3.106c-.47-.308-1.102-.926-1.693-1.884a9.91 9.91 0 0 1-.638-1.223h2.33zm-2.754-1.13h2.754v-3.339H6.109a12.91 12.91 0 0 0 .573 3.34zm2.754-4.467H6.109a12.91 12.91 0 0 1 .573-3.34h2.754v3.34zm-2.33-4.468h2.33V1.36c-.47.308-1.102.926-1.693 1.884-.237.384-.45.793-.638 1.223zm10.298 1.129a8.3 8.3 0 0 1 .943 3.339H15.02a14.166 14.166 0 0 0-.526-3.34h2.909zm-.72-1.13a8.488 8.488 0 0 0-.768-.883 8.321 8.321 0 0 0-3.563-2.116c.3.346.593.744.864 1.184.347.563.647 1.172.898 1.816h2.57zm-6.12-3.106v3.107h2.33a9.894 9.894 0 0 0-.637-1.223c-.591-.958-1.222-1.576-1.693-1.884zm2.754 4.236h-2.754v3.339h3.327a12.914 12.914 0 0 0-.573-3.34zm.573 4.467a12.914 12.914 0 0 1-.573 3.34h-2.754v-3.34h3.327zm-3.327 4.468v3.107c.47-.308 1.102-.926 1.693-1.884.237-.384.45-.793.638-1.223h-2.33zm5.352.884a8.32 8.32 0 0 1-3.563 2.116c.3-.346.593-.744.864-1.184.347-.562.647-1.172.898-1.816h2.57c-.234.31-.49.605-.77.884zm-1.42-2.013h2.908a8.301 8.301 0 0 0 .943-3.339H15.02a14.166 14.166 0 0 1-.526 3.34z" fill="#000"></path>
		</symbol>
	
		<symbol id="login" viewBox="">
			<path fill-rule="evenodd" clip-rule="evenodd" d="M15.77 0a9.25 9.25 0 0 0-4.929 1.415A9.216 9.216 0 0 0 7.5 5.092l1.438.71a7.592 7.592 0 0 1 6.832-4.208c4.204 0 7.625 3.397 7.625 7.573 0 4.175-3.42 7.572-7.625 7.572a7.592 7.592 0 0 1-6.832-4.207l-1.438.71a9.216 9.216 0 0 0 3.341 3.676 9.25 9.25 0 0 0 4.929 1.415c5.09 0 9.23-4.112 9.23-9.166C25 4.112 20.86 0 15.77 0z" fill="#fff"></path><path fill-rule="evenodd" clip-rule="evenodd" d="M12.458 11.332l1.165 1.001L17.5 9l-3.877-3.333-1.165 1.001 1.889 1.624H0v1.416h14.347l-1.889 1.624z" fill="#fff"></path>
		</symbol>
	
		<symbol id="login_mobile" viewBox="">
			<path fill-rule="evenodd" clip-rule="evenodd" d="M15.77 0a9.25 9.25 0 0 0-4.929 1.415A9.216 9.216 0 0 0 7.5 5.092l1.438.71a7.592 7.592 0 0 1 6.832-4.208c4.204 0 7.625 3.397 7.625 7.573 0 4.175-3.42 7.572-7.625 7.572a7.592 7.592 0 0 1-6.832-4.207l-1.438.71a9.216 9.216 0 0 0 3.341 3.676 9.25 9.25 0 0 0 4.929 1.415c5.09 0 9.23-4.112 9.23-9.166C25 4.112 20.86 0 15.77 0z" fill="#231D1F"></path><path fill-rule="evenodd" clip-rule="evenodd" d="M12.458 11.332l1.165 1.001L17.5 9l-3.877-3.333-1.165 1.001 1.889 1.624H0v1.416h14.347l-1.889 1.624z" fill="#231D1F"></path>
		</symbol>
	
		<symbol id="pagination_arrow" viewBox="">
			<path d="M7.22.924L3.606 5.942l3.614 5.044H4.282L.59 5.942 4.282.924H7.22z" fill="#fff"></path>
		</symbol>
	
		<symbol id="product-flag" viewBox="">
			<path clip-rule="evenodd" d="M0 0h60v93L30 76.348 0 93V0z"></path>
		</symbol>
	
		<symbol id="search" viewBox="">
			<path fill-rule="evenodd" clip-rule="evenodd" d="M14.629 5.403a6.48 6.48 0 0 0-4.613-1.908 6.48 6.48 0 0 0-4.613 1.908l1.059 1.059a4.992 4.992 0 0 1 3.554-1.47c1.345 0 2.607.522 3.555 1.47a4.993 4.993 0 0 1 1.47 3.554 4.993 4.993 0 0 1-1.47 3.555l1.058 1.058a6.48 6.48 0 0 0 1.908-4.613 6.48 6.48 0 0 0-1.908-4.613z" fill="#231D1F"></path><path fill-rule="evenodd" clip-rule="evenodd" d="M17.605 16.547l6.375 6.375-1.058 1.058-6.375-6.375a9.973 9.973 0 0 1-6.53 2.428C4.492 20.033 0 15.539 0 10.016S4.493 0 10.016 0s10.016 4.493 10.017 10.016a9.973 9.973 0 0 1-2.428 6.53zm-7.589-15.05c-4.697 0-8.52 3.822-8.52 8.52 0 4.697 3.823 8.519 8.52 8.519 4.698 0 8.52-3.822 8.52-8.52 0-4.697-3.822-8.52-8.52-8.52z" fill="#231D1F"></path>
		</symbol>
	
		<symbol id="shopcart" viewBox="">
			<path fill-rule="evenodd" clip-rule="evenodd" d="M6.966 12.667h-.001a.634.634 0 0 0 .002 1.266H18.45a.633.633 0 1 1 0 1.267H6.967c-1.048 0-1.9-.852-1.9-1.9 0-.78.472-1.45 1.145-1.743L3.925 1.267H.633A.633.633 0 1 1 .633 0h3.8c.297 0 .554.206.619.496l.452 2.037h15.48a.633.633 0 0 1 .61.808l-2.534 8.866a.633.633 0 0 1-.609.46H6.966zM17.973 11.4l2.172-7.6H5.785l1.69 7.6h10.498zM8.233 19c-1.047 0-1.9-.852-1.9-1.9s.853-1.9 1.9-1.9c1.048 0 1.9.852 1.9 1.9s-.852 1.9-1.9 1.9zm.634-1.9a.634.634 0 1 0-1.268.002.634.634 0 0 0 1.268-.002zm8.318 1.9c-1.048 0-1.9-.852-1.9-1.9s.852-1.9 1.9-1.9c1.047 0 1.9.852 1.9 1.9s-.853 1.9-1.9 1.9zm.633-1.9a.634.634 0 1 0-1.268.002.634.634 0 0 0 1.268-.002z" fill="#fff"></path>
		</symbol>
	
		<symbol id="smi-icon_1" viewBox="">
			<path fill="#fff" d="M17.52 32.199h3.504v3.698H17.52zm15.457 0h3.504v3.698h-3.504zM7.008 35.897h10.511v3.698H7.008zm14.222 0h11.748v3.698H21.23zm15.25 0h10.511v3.698H36.48zM10.512 0h3.504v3.698h-3.504zm9.48 0h3.504v3.698h-3.504zm10.512 0h3.504v3.698h-3.504zm9.48 0h3.504v3.698h-3.504z"></path><path fill-rule="evenodd" clip-rule="evenodd" d="M50.478 24.802v7.434h-3.522v3.718h3.522v8.674H3.522v-8.674h3.522v-3.718H3.522v-7.434H0v28.5h3.522v-4.957h46.956v4.956H54v-28.5h-3.522z" fill="#fff"></path><path fill="#fff" d="M3.504 53.301h46.992v3.698H3.504z"></path><path fill-rule="evenodd" clip-rule="evenodd" d="M43.447 21.072V7.397h-3.524v13.675h-5.874V7.397h-3.524v13.675h-7.05V7.397h-3.524v13.675h-5.874V7.397h-3.524v13.675h-7.05v3.73h46.993v-3.73h-7.049z" fill="#fff"></path>
		</symbol>
	
		<symbol id="smi-icon_2" viewBox="">
			<path fill="#231D1F" d="M6.95 7.246h3.475v3.623H6.95z"></path><path fill-rule="evenodd" clip-rule="evenodd" d="M7.07 26.855v-3.684H3.535v-4.913H0V37.91h3.535V26.856H7.07z" fill="#fff"></path><path fill="#fff" d="M3.535 10.888H7.07v7.37H3.535zM7.07 45.279h3.535v3.685H7.07zM3.535 37.91H7.07v7.37H3.535zM32.829 7.362h3.534v7.361h-3.534zM10.444 3.681h7.069v3.681h-7.069zm32.989 3.681h3.534v3.681h-3.534z"></path><path fill-rule="evenodd" clip-rule="evenodd" d="M36.363 3.68V0h-18.85v3.68h3.534v3.681h3.534v-3.68h4.713v3.68h3.534v-3.68h3.535z" fill="#fff"></path><path fill="#fff" d="M36.363 3.681h7.069v3.681h-7.069zm10.687 7.467h3.475v7.246H47.05zm0 26.754h3.475v7.246H47.05zm-3.476 7.525h3.475v3.623h-3.475zM17.644 7.525h3.475v7.246h-3.475z"></path><path fill-rule="evenodd" clip-rule="evenodd" d="M40.02 27.059V14.77h-3.514v15.974H17.762V14.771h-3.515v12.288h-7.03v3.686h7.03v11.06h3.515V34.43h18.744v7.373h3.514V30.745h7.03v-3.686h-7.03z" fill="#fff"></path><path fill="#fff" d="M17.644 41.525h3.475v7.246h-3.475zm18.874 7.41h7.038v3.681h-7.038zm-25.806 0h7.038v3.681h-7.038zm22.287-7.362h3.519v7.361h-3.519z"></path><path fill-rule="evenodd" clip-rule="evenodd" d="M33 48.935h-3.52v3.68h-4.692v-3.68h-3.519v3.68H17.75v3.681h18.768v-3.68H33v-3.681zm17.525-30.541v4.877H47.05v3.658h3.475v10.973H54V18.394h-3.475z" fill="#fff"></path>
		</symbol>
	
		<symbol id="smi-icon_3" viewBox="">
			<path fill="#fff" d="M3.447 3.905h3.447V7.51H3.447zm43.659 0h3.447V7.51h-3.447zm-17.808 0h3.447V7.51h-3.447zM3.447 29.737h3.447v3.605H3.447zm43.659 0h3.447v3.605h-3.447zM17.809 40.551h6.894v3.605h-6.894zm11.489 0h6.894v3.605h-6.894zM21.255 3.905h3.447V7.51h-3.447z"></path><path fill="#fff" d="M24.702 7.509h4.596v3.605h-4.596zm11.489 29.437h6.894v3.605h-6.894zm-25.276 0h6.894v3.605h-6.894zm-4.021-3.604h3.447v3.605H6.894zm36.765 0h3.447v3.605h-3.447zM24.702 44.155h4.596v3.605h-4.596zM6.894.3h14.362v3.605H6.894zm25.851 0h14.362v3.605H32.745zM0 7.509h3.447v22.228H0zm50.553 0H54v22.228h-3.447z"></path>
		</symbol>
	
		<symbol id="social-fb" viewBox="">
			<path d="M1.236 17.965L17.5 1.7l16.263 16.264L17.5 34.228 1.236 17.964z" stroke="#9B9B9B"></path><path fill-rule="evenodd" clip-rule="evenodd" d="M21.623 9.004L19.225 9c-2.695 0-4.436 1.739-4.436 4.43v2.042h-2.412a.372.372 0 0 0-.377.367v2.96c0 .203.169.367.377.367h2.412v7.467c0 .203.168.367.377.367h3.146a.372.372 0 0 0 .378-.367v-7.467h2.82a.372.372 0 0 0 .377-.367v-2.96c0-.097-.04-.19-.11-.26a.383.383 0 0 0-.267-.107h-2.82v-1.731c0-.832.203-1.255 1.317-1.255h1.616a.372.372 0 0 0 .377-.367V9.37a.372.372 0 0 0-.377-.367z" fill="#9B9B9B"></path>
		</symbol>
	
		<symbol id="social-in" viewBox="">
			<path d="M1.236 17.965L17.5 1.7l16.263 16.264L17.5 34.228 1.236 17.964z" stroke="#9B9B9B"></path><path fill-rule="evenodd" clip-rule="evenodd" d="M14.323 10h7.354A4.328 4.328 0 0 1 26 14.323v7.354A4.328 4.328 0 0 1 21.677 26h-7.354A4.328 4.328 0 0 1 10 21.677v-7.354A4.328 4.328 0 0 1 14.323 10zm7.354 14.707c1.67 0 3.03-1.36 3.03-3.03v-7.354c0-1.67-1.36-3.03-3.03-3.03h-7.354a3.034 3.034 0 0 0-3.03 3.03v7.354c0 1.67 1.36 3.03 3.03 3.03h7.354z" fill="#9B9B9B"></path><path fill-rule="evenodd" clip-rule="evenodd" d="M20.828 15.171a3.972 3.972 0 0 1 1.128 2.242 3.974 3.974 0 0 1-.744 2.97 3.972 3.972 0 0 1-2.625 1.573 3.969 3.969 0 0 1-2.969-.744 3.973 3.973 0 0 1-1.574-2.626 3.974 3.974 0 0 1 .744-2.97 3.997 3.997 0 0 1 6.04-.445zm-4.352 4.884a2.54 2.54 0 0 0 1.9.476 2.561 2.561 0 0 0 2.155-2.907A2.544 2.544 0 0 0 18 15.441a2.542 2.542 0 0 0-2.055 1.034 2.542 2.542 0 0 0-.476 1.9c.1.676.458 1.273 1.007 1.68zm6.231-6.762A1.007 1.007 0 0 0 22 13c-.263 0-.52.107-.707.293A1.006 1.006 0 0 0 21 14c0 .264.107.52.293.707.186.186.444.293.707.293.263 0 .52-.107.707-.293.186-.186.293-.444.293-.707 0-.263-.107-.52-.293-.707z" fill="#9B9B9B"></path>
		</symbol>
	
		<symbol id="social-vk" viewBox="">
			<path d="M1.236 17.965L17.5 1.7l16.263 16.264L17.5 34.228 1.236 17.964z" stroke="#9B9B9B"></path><path fill-rule="evenodd" clip-rule="evenodd" d="M25.9 22.934a1.343 1.343 0 0 0-.065-.125c-.33-.603-.96-1.342-1.89-2.219l-.02-.02-.01-.01-.009-.01h-.01c-.422-.408-.69-.683-.801-.823-.205-.268-.25-.539-.139-.813.08-.208.376-.646.89-1.315.27-.355.485-.64.643-.853 1.141-1.54 1.636-2.523 1.484-2.952l-.059-.1c-.04-.06-.142-.115-.306-.165-.165-.05-.376-.059-.634-.025l-2.848.02a.365.365 0 0 0-.198.005l-.129.03-.05.025-.039.03a.443.443 0 0 0-.109.105.69.69 0 0 0-.098.176c-.31.81-.663 1.563-1.06 2.259a20.71 20.71 0 0 1-.672 1.079 5.176 5.176 0 0 1-.514.672c-.139.144-.264.26-.376.346-.112.088-.198.124-.257.111a7.717 7.717 0 0 1-.169-.04.664.664 0 0 1-.222-.246 1.113 1.113 0 0 1-.114-.392 4.36 4.36 0 0 1-.035-.406 8.585 8.585 0 0 1 .006-.482 14.9 14.9 0 0 0 .01-.422c0-.254.004-.53.014-.828l.025-.707c.007-.175.01-.359.01-.553 0-.194-.012-.346-.035-.456a1.575 1.575 0 0 0-.104-.322.538.538 0 0 0-.202-.24 1.135 1.135 0 0 0-.332-.136c-.35-.08-.794-.124-1.335-.13-1.227-.014-2.015.066-2.365.24a1.337 1.337 0 0 0-.375.301c-.12.148-.136.228-.05.241.396.06.676.204.84.432l.06.12c.046.088.093.242.139.462.046.221.076.465.089.733a7.91 7.91 0 0 1 0 1.255c-.033.348-.064.619-.094.813a1.645 1.645 0 0 1-.252.692.171.171 0 0 1-.05.05.73.73 0 0 1-.267.05c-.093 0-.205-.046-.336-.14a2.386 2.386 0 0 1-.41-.386 5.174 5.174 0 0 1-.48-.688 12.064 12.064 0 0 1-.555-1.044l-.158-.291c-.099-.187-.234-.46-.405-.818a15.916 15.916 0 0 1-.455-1.04.66.66 0 0 0-.238-.32l-.05-.03a1.037 1.037 0 0 0-.386-.15l-2.71.019c-.277 0-.465.064-.564.19l-.04.061a.329.329 0 0 0-.029.16c0 .074.02.165.06.272a33.33 33.33 0 0 0 1.29 2.73c.465.877.87 1.583 1.212 2.118.343.535.693 1.04 1.049 1.516.356.475.592.78.707.913.115.134.206.234.272.301l.247.241c.159.16.391.353.698.577.306.225.646.445 1.019.663.372.217.806.395 1.3.532.495.137.977.192 1.445.166h1.138c.23-.02.405-.094.524-.221l.04-.05a.67.67 0 0 0 .073-.186c.024-.084.035-.176.035-.276a3.35 3.35 0 0 1 .064-.778c.05-.23.106-.405.169-.522a1.284 1.284 0 0 1 .38-.441.637.637 0 0 1 .08-.036c.158-.053.344-.001.559.156.214.157.415.352.603.582.188.231.414.49.678.778.264.288.494.502.692.643l.198.12c.132.08.303.154.515.221.21.067.395.084.553.05l2.533-.04c.25 0 .445-.042.583-.125.139-.084.221-.176.248-.276a.788.788 0 0 0 .005-.342 1.272 1.272 0 0 0-.07-.266z" fill="#9B9B9B"></path>
		</symbol>
	
		<symbol id="subscribe" viewBox="">
			<path d="M8.915 6H1v19h14.038v-9.5" stroke="#fff" stroke-width="1.5"></path><path d="M16.24 9.04h-2.912v2.864h-1.344V9.04H9.072V7.776h2.912v-2.88h1.344v2.88h2.912V9.04z" fill="#fff"></path>
		</symbol>
	
</svg>
