<svg width="60" height="60" viewBox="0 0 60 60" fill="none" xmlns="http://www.w3.org/2000/svg">
<path d="M1.41421 30L30 1.41421L58.5858 30L30 58.5858L1.41421 30Z" stroke="#9B9B9B" stroke-width="2"/>
<path fill-rule="evenodd" clip-rule="evenodd" d="M35.9269 16.0058L32.3291 16C28.287 16 25.6749 18.7047 25.6749 22.8908V26.068H22.0575C21.7449 26.068 21.4917 26.3237 21.4917 26.6392V31.2425C21.4917 31.558 21.7452 31.8134 22.0575 31.8134H25.6749V43.4291C25.6749 43.7445 25.928 44 26.2406 44H30.9604C31.2729 44 31.5261 43.7442 31.5261 43.4291V31.8134H35.7557C36.0683 31.8134 36.3214 31.558 36.3214 31.2425L36.3232 26.6392C36.3232 26.4877 36.2634 26.3427 36.1575 26.2355C36.0516 26.1283 35.9072 26.068 35.7572 26.068H31.5261V23.3747C31.5261 22.0802 31.8317 21.423 33.5026 21.423L35.9263 21.4221C36.2386 21.4221 36.4917 21.1664 36.4917 20.8512V16.5768C36.4917 16.2619 36.2389 16.0064 35.9269 16.0058Z" fill="#9B9B9B"/>
</svg>
