<svg width="60" height="60" viewBox="0 0 60 60" fill="none" xmlns="http://www.w3.org/2000/svg">
<path d="M1.41421 30L30 1.41421L58.5858 30L30 58.5858L1.41421 30Z" stroke="#9B9B9B" stroke-width="2"/>
<path fill-rule="evenodd" clip-rule="evenodd" d="M38.5817 20.7393H39.2955C41.5579 20.7393 43.4 22.5963 43.4 24.8769V31.5505C43.4 33.8311 41.5579 35.6881 39.2955 35.6881H38.5759V40.9341C38.5759 42.0715 37.6549 43 36.5266 43H23.7986C22.6703 43 21.7492 42.0715 21.7492 40.9341V35.6881H21.1045C18.8421 35.6881 17 33.8311 17 31.5505V24.8769C17 22.5963 18.8421 20.7393 21.1045 20.7393H21.755V19.1376C21.755 16.857 23.5971 15 25.8595 15H34.4772C36.7396 15 38.5817 16.857 38.5817 19.1376V20.7393ZM25.8537 16.5668C24.4491 16.5668 23.3035 17.7217 23.3035 19.1376V20.7393H37.0159V19.1376C37.0159 17.7217 35.8703 16.5668 34.4657 16.5668H25.8537ZM37.0216 40.9457C37.0216 41.2184 36.7971 41.4448 36.5266 41.4448H23.7986C23.528 41.4448 23.3035 41.2184 23.3035 40.9457V32.2933H37.0216V40.9457ZM39.2955 34.127C40.7001 34.127 41.8457 32.9722 41.8457 31.5563V24.8827C41.8457 23.4667 40.7001 22.3119 39.2955 22.3119H21.1045C19.6999 22.3119 18.5543 23.4667 18.5543 24.8827V31.5563C18.5543 32.9722 19.6999 34.127 21.1045 34.127H21.755V32.2933H20.6094C20.1777 32.2933 19.8323 31.9451 19.8323 31.5098C19.8323 31.0746 20.1777 30.7264 20.6094 30.7264H39.6064C40.0381 30.7264 40.3835 31.0746 40.3835 31.5098C40.3835 31.9451 40.0381 32.2933 39.6064 32.2933H38.5817V34.127H39.2955Z" fill="#9B9B9B"/>
<path d="M38.5817 20.7393H38.4317V20.8893H38.5817V20.7393ZM38.5759 35.6881V35.5381H38.4259V35.6881H38.5759ZM21.7492 35.6881H21.8992V35.5381H21.7492V35.6881ZM21.755 20.7393V20.8893H21.905V20.7393H21.755ZM23.3035 20.7393H23.1535V20.8893H23.3035V20.7393ZM37.0159 20.7393V20.8893H37.1659V20.7393H37.0159ZM23.3035 32.2933V32.1433H23.1535V32.2933H23.3035ZM37.0216 32.2933H37.1716V32.1433H37.0216V32.2933ZM21.755 34.127V34.277H21.905V34.127H21.755ZM21.755 32.2933H21.905V32.1433H21.755V32.2933ZM38.5817 32.2933V32.1433H38.4317V32.2933H38.5817ZM38.5817 34.127H38.4317V34.277H38.5817V34.127ZM39.2955 20.5893H38.5817V20.8893H39.2955V20.5893ZM43.55 24.8769C43.55 22.5146 41.6418 20.5893 39.2955 20.5893V20.8893C41.4739 20.8893 43.25 22.678 43.25 24.8769H43.55ZM43.55 31.5505V24.8769H43.25V31.5505H43.55ZM39.2955 35.8381C41.6418 35.8381 43.55 33.9128 43.55 31.5505H43.25C43.25 33.7494 41.4739 35.5381 39.2955 35.5381V35.8381ZM38.5759 35.8381H39.2955V35.5381H38.5759V35.8381ZM38.7259 40.9341V35.6881H38.4259V40.9341H38.7259ZM36.5266 43.15C37.7388 43.15 38.7259 42.1532 38.7259 40.9341H38.4259C38.4259 41.9898 37.5709 42.85 36.5266 42.85V43.15ZM23.7986 43.15H36.5266V42.85H23.7986V43.15ZM21.5992 40.9341C21.5992 42.1532 22.5863 43.15 23.7986 43.15V42.85C22.7543 42.85 21.8992 41.9898 21.8992 40.9341H21.5992ZM21.5992 35.6881V40.9341H21.8992V35.6881H21.5992ZM21.1045 35.8381H21.7492V35.5381H21.1045V35.8381ZM16.85 31.5505C16.85 33.9128 18.7582 35.8381 21.1045 35.8381V35.5381C18.9261 35.5381 17.15 33.7494 17.15 31.5505H16.85ZM16.85 24.8769V31.5505H17.15V24.8769H16.85ZM21.1045 20.5893C18.7582 20.5893 16.85 22.5146 16.85 24.8769H17.15C17.15 22.678 18.9261 20.8893 21.1045 20.8893V20.5893ZM21.755 20.5893H21.1045V20.8893H21.755V20.5893ZM21.605 19.1376V20.7393H21.905V19.1376H21.605ZM25.8595 14.85C23.5131 14.85 21.605 16.7753 21.605 19.1376H21.905C21.905 16.9387 23.6811 15.15 25.8595 15.15V14.85ZM34.4772 14.85H25.8595V15.15H34.4772V14.85ZM38.7317 19.1376C38.7317 16.7753 36.8235 14.85 34.4772 14.85V15.15C36.6556 15.15 38.4317 16.9387 38.4317 19.1376H38.7317ZM38.7317 20.7393V19.1376H38.4317V20.7393H38.7317ZM23.4535 19.1376C23.4535 17.8034 24.5331 16.7168 25.8537 16.7168V16.4168C24.3651 16.4168 23.1535 17.64 23.1535 19.1376H23.4535ZM23.4535 20.7393V19.1376H23.1535V20.7393H23.4535ZM37.0159 20.5893H23.3035V20.8893H37.0159V20.5893ZM36.8659 19.1376V20.7393H37.1659V19.1376H36.8659ZM34.4657 16.7168C35.7863 16.7168 36.8659 17.8034 36.8659 19.1376H37.1659C37.1659 17.64 35.9543 16.4168 34.4657 16.4168V16.7168ZM25.8537 16.7168H34.4657V16.4168H25.8537V16.7168ZM36.5266 41.5948C36.8811 41.5948 37.1716 41.3002 37.1716 40.9457H36.8716C36.8716 41.1367 36.7131 41.2948 36.5266 41.2948V41.5948ZM23.7986 41.5948H36.5266V41.2948H23.7986V41.5948ZM23.1535 40.9457C23.1535 41.3001 23.4441 41.5948 23.7986 41.5948V41.2948C23.612 41.2948 23.4535 41.1367 23.4535 40.9457H23.1535ZM23.1535 32.2933V40.9457H23.4535V32.2933H23.1535ZM37.0216 32.1433H23.3035V32.4433H37.0216V32.1433ZM37.1716 40.9457V32.2933H36.8716V40.9457H37.1716ZM41.6957 31.5563C41.6957 32.8905 40.6162 33.977 39.2955 33.977V34.277C40.7841 34.277 41.9957 33.0539 41.9957 31.5563H41.6957ZM41.6957 24.8827V31.5563H41.9957V24.8827H41.6957ZM39.2955 22.4619C40.6162 22.4619 41.6957 23.5484 41.6957 24.8827H41.9957C41.9957 23.385 40.7841 22.1619 39.2955 22.1619V22.4619ZM21.1045 22.4619H39.2955V22.1619H21.1045V22.4619ZM18.7043 24.8827C18.7043 23.5484 19.7838 22.4619 21.1045 22.4619V22.1619C19.6159 22.1619 18.4043 23.385 18.4043 24.8827H18.7043ZM18.7043 31.5563V24.8827H18.4043V31.5563H18.7043ZM21.1045 33.977C19.7838 33.977 18.7043 32.8905 18.7043 31.5563H18.4043C18.4043 33.0539 19.6159 34.277 21.1045 34.277V33.977ZM21.755 33.977H21.1045V34.277H21.755V33.977ZM21.605 32.2933V34.127H21.905V32.2933H21.605ZM20.6094 32.4433H21.755V32.1433H20.6094V32.4433ZM19.6823 31.5098C19.6823 32.0268 20.0937 32.4433 20.6094 32.4433V32.1433C20.2616 32.1433 19.9823 31.8634 19.9823 31.5098H19.6823ZM20.6094 30.5764C20.0937 30.5764 19.6823 30.9929 19.6823 31.5098H19.9823C19.9823 31.1563 20.2616 30.8764 20.6094 30.8764V30.5764ZM39.6064 30.5764H20.6094V30.8764H39.6064V30.5764ZM40.5335 31.5098C40.5335 30.9929 40.1221 30.5764 39.6064 30.5764V30.8764C39.9541 30.8764 40.2335 31.1563 40.2335 31.5098H40.5335ZM39.6064 32.4433C40.1221 32.4433 40.5335 32.0268 40.5335 31.5098H40.2335C40.2335 31.8634 39.9541 32.1433 39.6064 32.1433V32.4433ZM38.5817 32.4433H39.6064V32.1433H38.5817V32.4433ZM38.7317 34.127V32.2933H38.4317V34.127H38.7317ZM39.2955 33.977H38.5817V34.277H39.2955V33.977Z" fill="#979797"/>
<path fill-rule="evenodd" clip-rule="evenodd" d="M24.9602 36.6H34.6398C35.0622 36.6 35.4 36.2444 35.4 35.8C35.4 35.3556 35.0622 35 34.6398 35H24.9602C24.5379 35 24.2 35.3556 24.2 35.8C24.2 36.2444 24.5435 36.6 24.9602 36.6Z" fill="#9B9B9B"/>
<path fill-rule="evenodd" clip-rule="evenodd" d="M35.4454 37.4H25.7602C25.3379 37.4 25 37.7556 25 38.2C25 38.6445 25.3379 39 25.7602 39H35.4398C35.8621 39 36.2 38.6445 36.2 38.2C36.2 37.7556 35.8621 37.4 35.4454 37.4Z" fill="#9B9B9B"/>
<path fill-rule="evenodd" clip-rule="evenodd" d="M39.4059 23.8H37.7941C37.3529 23.8 37 24.1556 37 24.6C37 25.0445 37.3529 25.4 37.7941 25.4H39.4059C39.8471 25.4 40.2 25.0445 40.2 24.6C40.2 24.1556 39.8471 23.8 39.4059 23.8Z" fill="#9B9B9B"/>
</svg>
