<svg width="60" height="60" viewBox="0 0 60 60" fill="none" xmlns="http://www.w3.org/2000/svg">
<path d="M1.41421 30L30 1.41421L58.5858 30L30 58.5858L1.41421 30Z" stroke="#9B9B9B" stroke-width="2"/>
<path fill-rule="evenodd" clip-rule="evenodd" d="M44.686 23.5525L38.4485 17.3089C38.2425 17.1029 37.9985 17 37.7171 17C37.5877 17 37.4519 17.0271 37.3113 17.0812C36.8888 17.2655 36.6776 17.5853 36.6776 18.0405V21.1625H34.0784C32.9305 21.1625 31.8663 21.2221 30.8864 21.3413C29.9064 21.4604 29.0427 21.6256 28.2955 21.8372C27.5482 22.0484 26.874 22.3114 26.273 22.6257C25.672 22.9399 25.1603 23.2733 24.7379 23.6257C24.3154 23.9779 23.9446 24.3791 23.6251 24.8289C23.3055 25.2787 23.0511 25.7203 22.8614 26.1539C22.6721 26.5877 22.5205 27.0645 22.4067 27.5848C22.2928 28.1051 22.2171 28.5928 22.1792 29.0479C22.1413 29.5032 22.1223 29.9965 22.1223 30.5274C22.1223 31.1347 22.2172 31.7957 22.4067 32.5114C22.5962 33.2266 22.8047 33.8444 23.0321 34.3648C23.2595 34.8847 23.5276 35.4242 23.8363 35.9823C24.1449 36.5405 24.3587 36.9115 24.4779 37.0959C24.597 37.2798 24.7109 37.4482 24.8191 37.5999C24.9274 37.7408 25.0681 37.8112 25.2413 37.8112C25.2848 37.8112 25.3495 37.8006 25.4363 37.7788C25.6853 37.6595 25.7936 37.4756 25.7611 37.2261C25.2738 33.5841 25.6746 31.0203 26.9632 29.5354C28.2088 28.1155 30.5804 27.4054 34.0782 27.4054H36.6776V30.5271C36.6776 30.9827 36.8887 31.3023 37.3112 31.4867C37.4518 31.5409 37.5873 31.5678 37.717 31.5678C38.0094 31.5678 38.2532 31.4649 38.4483 31.2591L44.6861 25.0154C44.8916 24.8093 44.9947 24.5657 44.9947 24.2838C44.9946 24.0022 44.8916 23.7581 44.686 23.5525Z" fill="#9B9B9B"/>
<path fill-rule="evenodd" clip-rule="evenodd" d="M40.531 32.643C40.3247 32.556 40.1355 32.5996 39.9624 32.7729C39.6809 33.0328 39.3882 33.2334 39.085 33.374C38.8897 33.4822 38.7925 33.6391 38.7925 33.8449V37.3216C38.7925 38.0364 38.5384 38.6478 38.0293 39.1571C37.5203 39.6661 36.9082 39.9206 36.1935 39.9206H22.6782C21.9633 39.9206 21.3515 39.6661 20.8425 39.1571C20.3334 38.6478 20.079 38.0364 20.079 37.3216V23.8058C20.079 23.091 20.3334 22.4794 20.8425 21.9704C21.3514 21.4613 21.9633 21.2069 22.6782 21.2069H24.4976C24.5625 21.2069 24.6493 21.1851 24.7575 21.1419C25.364 20.7736 26.0839 20.4486 26.918 20.167C27.1996 20.113 27.3403 19.9398 27.3403 19.6472C27.3403 19.5065 27.2889 19.3849 27.186 19.2818C27.0831 19.1791 26.9615 19.1277 26.8206 19.1277H22.6784C21.3897 19.1277 20.2877 19.5853 19.3726 20.5003C18.4576 21.4154 18 22.5174 18 23.8061V37.3214C18 38.6102 18.4576 39.7122 19.3726 40.6273C20.2878 41.5425 21.3897 42 22.6785 42H36.1938C37.4824 42 38.5845 41.5425 39.4996 40.6273C40.4148 39.7122 40.8723 38.6103 40.8723 37.3214V33.1141C40.8723 32.8975 40.7585 32.7406 40.531 32.643Z" fill="#9B9B9B"/>
</svg>
