<svg width="60" height="60" viewBox="0 0 60 60" fill="none" xmlns="http://www.w3.org/2000/svg">
<path d="M1.41421 30L30 1.41421L58.5858 30L30 58.5858L1.41421 30Z" stroke="#9B9B9B" stroke-width="2"/>
<path fill-rule="evenodd" clip-rule="evenodd" d="M24.9524 17H36.1542C39.9586 17 43.0536 20.095 43.0535 23.8991V35.1009C43.0535 38.905 39.9586 42 36.1542 42H24.9524C21.1483 42 18.0535 38.9051 18.0535 35.1009V23.8991C18.0535 20.095 21.1483 17 24.9524 17ZM36.1544 39.7819C38.7355 39.7819 40.8355 37.6821 40.8355 35.1009H40.8353V23.8991C40.8353 21.3181 38.7354 19.2181 36.1542 19.2181H24.9524C22.3714 19.2181 20.2716 21.3181 20.2716 23.8991V35.1009C20.2716 37.6821 22.3714 39.782 24.9524 39.7819H36.1544Z" fill="#9B9B9B"/>
<path fill-rule="evenodd" clip-rule="evenodd" d="M24.0535 29.5001C24.0535 25.9159 26.9693 23 30.5535 23C34.1376 23 37.0535 25.9159 37.0535 29.5001C37.0535 33.0842 34.1376 36 30.5535 36C26.9693 36 24.0535 33.0842 24.0535 29.5001ZM26.2916 29.5C26.2916 31.8499 28.2036 33.7617 30.5535 33.7617C32.9034 33.7617 34.8153 31.8499 34.8153 29.5C34.8153 27.1499 32.9035 25.238 30.5535 25.238C28.2034 25.238 26.2916 27.1499 26.2916 29.5Z" fill="#9B9B9B"/>
<path fill-rule="evenodd" clip-rule="evenodd" d="M36.5535 22C36.1594 22 35.7722 22.1595 35.4939 22.4391C35.2142 22.7173 35.0535 23.1045 35.0535 23.5C35.0535 23.8942 35.2144 24.2814 35.4939 24.5609C35.7721 24.8391 36.1594 25 36.5535 25C36.9489 25 37.3348 24.8391 37.6144 24.5609C37.8939 24.2814 38.0535 23.8941 38.0535 23.5C38.0535 23.1045 37.8939 22.7173 37.6144 22.4391C37.3362 22.1595 36.9489 22 36.5535 22Z" fill="#9B9B9B"/>
</svg>
