<svg width="60" height="60" viewBox="0 0 60 60" xmlns="http://www.w3.org/2000/svg">
<path d="M1.41421 30L30 1.41421L58.5858 30L30 58.5858L1.41421 30Z" stroke="#9B9B9B" stroke-width="2"/>
<path fill-rule="evenodd" clip-rule="evenodd" d="M44.8303 38.1591C44.7915 38.0722 44.7554 38.0001 44.7219 37.9423C44.1667 36.9017 43.1057 35.6245 41.5396 34.1102L41.5065 34.0755L41.4899 34.0585L41.4732 34.0411H41.4564C40.7456 33.336 40.2955 32.8618 40.107 32.6191C39.7621 32.1567 39.6849 31.6887 39.8734 31.2144C40.0065 30.8561 40.5068 30.0994 41.3729 28.9433C41.8285 28.3306 42.1893 27.8396 42.4557 27.4696C44.3774 24.8109 45.2106 23.1119 44.955 22.372L44.8557 22.1991C44.789 22.0951 44.6169 21.9998 44.3395 21.913C44.0615 21.8263 43.7062 21.812 43.2729 21.8697L38.4746 21.9042C38.3969 21.8756 38.2859 21.8782 38.1413 21.913C37.9969 21.9477 37.9246 21.9652 37.9246 21.9652L37.8411 22.0086L37.7748 22.0607C37.7193 22.0952 37.6582 22.1559 37.5915 22.2426C37.5251 22.329 37.4696 22.4305 37.4253 22.546C36.9029 23.9447 36.3089 25.2451 35.6423 26.4472C35.2313 27.164 34.8539 27.7852 34.5092 28.3111C34.1649 28.8369 33.8761 29.2243 33.6431 29.4726C33.4096 29.7212 33.199 29.9203 33.0098 30.0708C32.8209 30.2213 32.6767 30.2848 32.5768 30.2616C32.4768 30.2383 32.3825 30.2152 32.2933 30.1922C32.1379 30.0881 32.0129 29.9465 31.9186 29.7674C31.824 29.5882 31.7603 29.3627 31.7269 29.0911C31.6938 28.8193 31.6742 28.5855 31.6686 28.3889C31.6634 28.1925 31.6658 27.9148 31.677 27.5565C31.6886 27.198 31.6938 26.9555 31.6938 26.8283C31.6938 26.389 31.702 25.9122 31.7185 25.3978C31.7353 24.8834 31.7489 24.4759 31.7603 24.1756C31.7716 23.8751 31.7769 23.5571 31.7769 23.2219C31.7769 22.8867 31.7573 22.6238 31.7185 22.4329C31.6803 22.2424 31.6215 22.0574 31.544 21.8781C31.4661 21.6989 31.3521 21.5603 31.2025 21.4619C31.0526 21.3637 30.8662 21.2857 30.6444 21.2278C30.0556 21.0891 29.3059 21.0141 28.3949 21.0025C26.3291 20.9794 25.0017 21.1182 24.413 21.4188C24.1797 21.5458 23.9686 21.7193 23.7799 21.9387C23.5799 22.1931 23.552 22.332 23.6964 22.3548C24.3629 22.4587 24.8348 22.7073 25.1125 23.1002L25.2126 23.3085C25.2905 23.4587 25.3682 23.7247 25.446 24.1061C25.5236 24.4875 25.5738 24.9094 25.5958 25.3715C25.6513 26.2155 25.6513 26.9379 25.5958 27.5389C25.5402 28.1401 25.4877 28.6082 25.4376 28.9434C25.3874 29.2786 25.3125 29.5503 25.2126 29.7583C25.1125 29.9663 25.0459 30.0935 25.0126 30.1396C24.9792 30.1858 24.9515 30.2149 24.9294 30.2263C24.785 30.2839 24.6349 30.3132 24.4795 30.3132C24.3238 30.3132 24.1351 30.2322 23.913 30.0703C23.691 29.9084 23.4605 29.686 23.2217 29.4027C22.9828 29.1194 22.7135 28.7235 22.4135 28.215C22.1137 27.7065 21.8026 27.1054 21.4805 26.4119L21.214 25.9089C21.0474 25.5854 20.8198 25.1142 20.531 24.4959C20.242 23.8774 19.9866 23.2791 19.7646 22.7011C19.6758 22.4584 19.5425 22.2736 19.3648 22.1464L19.2814 22.0943C19.2259 22.0481 19.1369 21.9991 19.0149 21.9469C18.8926 21.8947 18.765 21.8573 18.6316 21.8343L14.0665 21.8688C13.6 21.8688 13.2835 21.9788 13.1168 22.1984L13.0501 22.3023C13.0168 22.3602 13 22.4526 13 22.5799C13 22.707 13.0333 22.8631 13.1 23.0479C13.7664 24.6779 14.4912 26.2499 15.2742 27.7641C16.0572 29.2783 16.7376 30.4981 17.3151 31.4222C17.8926 32.3471 18.4813 33.22 19.0812 34.0404C19.681 34.8612 20.078 35.3872 20.2723 35.6182C20.4668 35.8497 20.6196 36.0228 20.7306 36.1384L21.1472 36.5544C21.4138 36.8319 21.8053 37.1642 22.3218 37.5514C22.8384 37.9388 23.4103 38.3201 24.0379 38.6961C24.6656 39.0715 25.3958 39.3778 26.2289 39.6147C27.062 39.8519 27.8728 39.947 28.6614 39.9011H30.5775C30.9661 39.8662 31.2605 39.739 31.4606 39.5195L31.5269 39.4326C31.5715 39.3637 31.6132 39.2565 31.6517 39.1122C31.6907 38.9678 31.7101 38.8086 31.7101 38.6354C31.6987 38.1385 31.735 37.6906 31.8181 37.2919C31.9012 36.8932 31.9958 36.5927 32.1017 36.3903C32.2075 36.188 32.3269 36.0174 32.4598 35.8791C32.5929 35.7404 32.6878 35.6564 32.7435 35.6275C32.7988 35.5984 32.843 35.5787 32.8763 35.5668C33.1429 35.4744 33.4566 35.5639 33.8179 35.8358C34.179 36.1075 34.5176 36.4429 34.8344 36.8415C35.151 37.2405 35.5313 37.6881 35.9755 38.1851C36.42 38.6822 36.8087 39.0517 37.1418 39.2948L37.4749 39.5029C37.6973 39.6417 37.9861 39.7689 38.3416 39.8845C38.6965 40 39.0074 40.0289 39.2744 39.9711L43.5395 39.9019C43.9613 39.9019 44.2896 39.8292 44.5224 39.685C44.7557 39.5405 44.8943 39.3813 44.939 39.2082C44.9836 39.0349 44.986 38.8382 44.9475 38.6184C44.908 38.3991 44.869 38.2457 44.8303 38.1591Z" fill="#9B9B9B"/>
</svg>
