<svg width="60" height="60" viewBox="0 0 60 60" fill="none" xmlns="http://www.w3.org/2000/svg">
<path d="M1.41421 30L30 1.41421L58.5858 30L30 58.5858L1.41421 30Z" stroke="#9B9B9B" stroke-width="2"/>
<path fill-rule="evenodd" clip-rule="evenodd" d="M39.9744 18.1488C40.3376 18.292 40.6269 18.5177 40.8418 18.8263C41.0563 19.1348 41.1638 19.4761 41.1637 19.8507V41.1478C41.1637 41.5225 41.0564 41.8637 40.8417 42.172C40.6269 42.4808 40.3375 42.7068 39.9743 42.8498C39.765 42.9379 39.5226 42.9817 39.2472 42.9817C38.7186 42.9817 38.2615 42.8054 37.8759 42.4535L30.5895 35.4474L23.303 42.4533C22.9064 42.8165 22.4495 42.9983 21.9316 42.9983C21.6783 42.9983 21.4359 42.9488 21.2047 42.8498C20.8413 42.7068 20.5521 42.4809 20.3373 42.1725C20.1226 41.8638 20.0151 41.5226 20.0151 41.1479V19.8505C20.0151 19.4759 20.1226 19.1345 20.3373 18.8261C20.5521 18.5177 20.8413 18.2917 21.2047 18.1486C21.4361 18.0496 21.6783 18 21.9316 18H39.2472V18.0002C39.5006 18.0002 39.7431 18.0498 39.9744 18.1488ZM32.06 33.9273L39.049 40.6354V20.1151H22.1302V40.6354L29.119 33.9273L30.5895 32.5231L32.06 33.9273Z" fill="#9B9B9B"/>
</svg>
