<svg width="26" height="17" viewBox="0 0 26 17" fill="none" xmlns="http://www.w3.org/2000/svg">
<path fill-rule="evenodd" clip-rule="evenodd" d="M0.981132 2H25.0189C25.5605 2 26 1.552 26 1C26 0.448 25.5605 0 25.0189 0H0.981132C0.439547 0 0 0.448 0 1C0 1.552 0.439547 2 0.981132 2Z" fill=""/>
<path fill-rule="evenodd" clip-rule="evenodd" d="M0.981132 9H25.0189C25.5605 9 26 8.552 26 8C26 7.448 25.5605 7 25.0189 7H0.981132C0.439547 7 0 7.448 0 8C0 8.552 0.439547 9 0.981132 9Z" fill=""/>
<path fill-rule="evenodd" clip-rule="evenodd" d="M0.981132 17H25.0189C25.5605 17 26 16.552 26 16C26 15.448 25.5605 15 25.0189 15H0.981132C0.439547 15 0 15.448 0 16C0 16.552 0.439547 17 0.981132 17Z" fill=""/>
</svg>
