<svg width="21" height="20" viewBox="0 0 21 20" fill="none" xmlns="http://www.w3.org/2000/svg">
<path fill-rule="evenodd" clip-rule="evenodd" d="M0.7942 2.20856L17.7914 19.2058C18.1744 19.5888 18.802 19.5828 19.1923 19.1925C19.5826 18.8021 19.5886 18.1746 19.2057 17.7916L2.20841 0.794351C1.82546 0.411393 1.19786 0.41737 0.807542 0.807693C0.417219 1.19802 0.411242 1.82561 0.7942 2.20856Z" fill="white"/>
<path fill-rule="evenodd" clip-rule="evenodd" d="M2.60798 19.1052L19.6052 2.10797C19.9882 1.72501 19.9822 1.09742 19.5919 0.707096C19.2016 0.316773 18.574 0.310797 18.191 0.693755L1.19377 17.691C0.810807 18.074 0.816784 18.7015 1.20711 19.0919C1.59743 19.4822 2.22502 19.4882 2.60798 19.1052Z" fill="white"/>
</svg>
