<svg width="20" height="20" viewBox="0 0 20 20" fill="none" xmlns="http://www.w3.org/2000/svg">
<g id="settings (1)">
<path id="Shape" fill-rule="evenodd" clip-rule="evenodd" d="M10.3183 0.561331V9.73389C11.6239 9.99584 12.6052 11.1518 12.6052 12.5281C12.6052 13.9085 11.6197 15.0603 10.3183 15.3222V19.4054C10.3183 19.7173 10.0688 19.9667 9.75692 19.9667C9.44507 19.9667 9.19559 19.7173 9.19559 19.4054V15.3222C7.89414 15.0603 6.90869 13.9085 6.90869 12.5281C6.90869 11.1476 7.89414 9.99584 9.19559 9.73389V0.561331C9.19559 0.24948 9.44507 0 9.75692 0C10.0688 0 10.3183 0.24948 10.3183 0.561331ZM8.03135 12.5281C8.03135 13.4802 8.80474 14.2536 9.75692 14.2536C10.7091 14.2536 11.4825 13.4802 11.4825 12.5281C11.4825 11.5759 10.7091 10.8025 9.75692 10.8025C8.80474 10.8025 8.03135 11.5759 8.03135 12.5281Z" fill="#231D1F"/>
<path id="Shape_2" fill-rule="evenodd" clip-rule="evenodd" d="M3.44496 0.561331V5.02703C4.74642 5.28898 5.73187 6.43659 5.73187 7.81705C5.73187 9.1975 4.74642 10.3493 3.44496 10.6112V19.4054C3.44496 19.7173 3.19548 19.9667 2.88363 19.9667C2.57178 19.9667 2.3223 19.7173 2.3223 19.4054V10.6154C1.02085 10.3534 0.0354004 9.20166 0.0354004 7.82121C0.0354004 6.44075 1.02085 5.28898 2.3223 5.02703V0.561331C2.3223 0.24948 2.57178 0 2.88363 0C3.19548 0 3.44496 0.24948 3.44496 0.561331ZM1.15806 7.82121C1.15806 8.77339 1.93145 9.54678 2.88363 9.54678C3.83166 9.54678 4.60921 8.77339 4.60921 7.82121C4.60921 6.86902 3.83582 6.09563 2.88363 6.09563C1.93145 6.09563 1.15806 6.86902 1.15806 7.82121Z" fill="#231D1F"/>
<path id="Shape_3" fill-rule="evenodd" clip-rule="evenodd" d="M17.1498 0.561331V5.02703C18.4554 5.28898 19.4367 6.43659 19.4367 7.81705C19.4367 9.1975 18.4513 10.3493 17.1498 10.6112V19.4096C17.1498 19.7214 16.9003 19.9709 16.5885 19.9709C16.2766 19.9709 16.0271 19.7214 16.0271 19.4096V10.6154C14.7257 10.3534 13.7402 9.20166 13.7402 7.82121C13.7402 6.44075 14.7257 5.28898 16.0271 5.02703V0.561331C16.0271 0.24948 16.2766 0 16.5885 0C16.9003 0 17.1498 0.24948 17.1498 0.561331ZM14.8629 7.82121C14.8629 8.77339 15.6363 9.54678 16.5885 9.54678C17.5407 9.54678 18.314 8.77339 18.314 7.82121C18.314 6.86902 17.5407 6.09563 16.5885 6.09563C15.6363 6.09563 14.8629 6.86902 14.8629 7.82121Z" fill="#231D1F"/>
</g>
</svg>
