<svg width="33" height="19" viewBox="0 0 33 19" fill="none" xmlns="http://www.w3.org/2000/svg">
<path fill-rule="evenodd" clip-rule="evenodd" d="M32.825 17.1591C32.785 17.0722 32.7478 17.0001 32.7132 16.9423C32.1406 15.9017 31.0465 14.6245 29.4315 13.1102L29.3973 13.0755L29.3802 13.0585L29.363 13.0411H29.3456C28.6127 12.336 28.1485 11.8618 27.9541 11.6191C27.5985 11.1567 27.5188 10.6887 27.7132 10.2144C27.8505 9.85612 28.3663 9.09944 29.2595 7.94333C29.7294 7.33063 30.1014 6.83957 30.3762 6.46961C32.358 3.81087 33.2172 2.1119 32.9536 1.37204L32.8512 1.19914C32.7824 1.09505 32.6049 0.999827 32.3189 0.912984C32.0322 0.826323 31.6657 0.811991 31.2189 0.869744L26.2707 0.904239C26.1906 0.875574 26.0761 0.878247 25.927 0.912984C25.778 0.947721 25.7035 0.96515 25.7035 0.96515L25.6174 1.00857L25.549 1.06074C25.4917 1.09523 25.4287 1.1559 25.36 1.24262C25.2915 1.32904 25.2343 1.43046 25.1886 1.54603C24.6498 2.94469 24.0373 4.24509 23.3499 5.44717C22.9261 6.16396 22.5368 6.78516 22.1813 7.31114C21.8263 7.83693 21.5285 8.22433 21.2881 8.47265C21.0474 8.72121 20.8302 8.92035 20.6351 9.07077C20.4403 9.22126 20.2916 9.28484 20.1886 9.26158C20.0854 9.23833 19.9882 9.21525 19.8962 9.19217C19.7359 9.08808 19.607 8.94652 19.5098 8.76737C19.4122 8.58822 19.3465 8.36273 19.3122 8.09108C19.278 7.81926 19.2578 7.58545 19.252 7.38887C19.2466 7.19253 19.2491 6.91482 19.2607 6.55651C19.2726 6.19803 19.278 5.95547 19.278 5.8283C19.278 5.38899 19.2865 4.9122 19.3035 4.39782C19.3208 3.88344 19.3348 3.47589 19.3466 3.17564C19.3583 2.87509 19.3637 2.55711 19.3637 2.22189C19.3637 1.88666 19.3434 1.62376 19.3035 1.43295C19.264 1.24238 19.2034 1.0574 19.1236 0.878064C19.0432 0.698913 18.9256 0.560328 18.7713 0.461946C18.6167 0.363686 18.4245 0.285709 18.1958 0.227773C17.5886 0.089128 16.8155 0.0141271 15.876 0.00246706C13.7456 -0.0206101 12.3767 0.118217 11.7696 0.418767C11.5291 0.545753 11.3114 0.719257 11.1168 0.938733C10.9105 1.19313 10.8818 1.33196 11.0307 1.35479C11.718 1.4587 12.2046 1.70726 12.491 2.10024L12.5943 2.30849C12.6745 2.45873 12.7547 2.72473 12.8349 3.10611C12.915 3.48749 12.9667 3.90938 12.9895 4.37153C13.0466 5.21548 13.0466 5.93792 12.9895 6.5389C12.9321 7.14012 12.8779 7.60816 12.8262 7.94339C12.7746 8.27862 12.6973 8.55026 12.5943 8.75826C12.491 8.96632 12.4224 9.09348 12.388 9.13964C12.3536 9.18579 12.3249 9.21488 12.3022 9.2263C12.1533 9.28387 11.9985 9.3132 11.8382 9.3132C11.6777 9.3132 11.4831 9.23219 11.2541 9.07029C11.0251 8.90838 10.7874 8.68599 10.5411 8.40275C10.2948 8.11944 10.017 7.72355 9.70762 7.215C9.39848 6.70645 9.07772 6.10541 8.74553 5.41188L8.47069 4.90892C8.29888 4.58535 8.06418 4.11422 7.76635 3.49593C7.46834 2.8774 7.20493 2.27909 6.97595 1.70113C6.88442 1.4584 6.74691 1.2736 6.56366 1.14643L6.47766 1.09426C6.42049 1.04811 6.32872 0.999098 6.20282 0.946871C6.07675 0.894704 5.9452 0.857295 5.80763 0.834278L1.09984 0.868773C0.618766 0.868773 0.292352 0.978754 0.120479 1.19841L0.0516942 1.30232C0.0173317 1.3602 0 1.45263 0 1.57985C0 1.70702 0.0343625 1.8631 0.103148 2.0479C0.790398 3.67787 1.53777 5.24986 2.34526 6.76408C3.15275 8.27831 3.85444 9.49806 4.44992 10.4222C5.04551 11.3471 5.6526 12.22 6.27119 13.0404C6.88977 13.8612 7.29924 14.3872 7.49957 14.6182C7.70015 14.8497 7.8577 15.0228 7.97222 15.1384L8.40184 15.5544C8.67675 15.8319 9.08043 16.1642 9.61308 16.5514C10.1458 16.9388 10.7357 17.3201 11.3828 17.6961C12.0301 18.0715 12.7832 18.3778 13.6423 18.6147C14.5014 18.8519 15.3375 18.947 16.1509 18.9011H18.1268C18.5275 18.8662 18.8311 18.739 19.0375 18.5195L19.1059 18.4326C19.1518 18.3637 19.1949 18.2565 19.2346 18.1122C19.2748 17.9678 19.2948 17.8086 19.2948 17.6354C19.283 17.1385 19.3205 16.6906 19.4062 16.2919C19.4918 15.8932 19.5895 15.5927 19.6986 15.3903C19.8077 15.188 19.9309 15.0174 20.0679 14.8791C20.2052 14.7404 20.3031 14.6564 20.3605 14.6275C20.4175 14.5984 20.4631 14.5787 20.4974 14.5668C20.7724 14.4744 21.0959 14.5639 21.4685 14.8358C21.8408 15.1075 22.1901 15.4429 22.5167 15.8415C22.8432 16.2405 23.2354 16.6881 23.6935 17.1851C24.1519 17.6822 24.5527 18.0517 24.8962 18.2948L25.2397 18.5029C25.4691 18.6417 25.767 18.7689 26.1336 18.8845C26.4995 19 26.8202 19.0289 27.0955 18.9711L31.4938 18.9019C31.9289 18.9019 32.2674 18.8292 32.5075 18.685C32.7481 18.5405 32.891 18.3813 32.9371 18.2082C32.9831 18.0349 32.9855 17.8382 32.9458 17.6184C32.9051 17.3991 32.8649 17.2457 32.825 17.1591Z" />
</svg>
