<svg width="21" height="21" viewBox="0 0 21 21" fill="none" xmlns="http://www.w3.org/2000/svg">
<path fill-rule="evenodd" clip-rule="evenodd" d="M5.67414 0H15.3259C18.4546 0 21 2.54543 21 5.67414V15.3259C21 18.4546 18.4546 21 15.3259 21H5.67414C2.54543 21 0 18.4546 0 15.3259V5.67414C0 2.54543 2.54543 0 5.67414 0ZM15.3259 19.3034C17.5191 19.3034 19.3034 17.5191 19.3034 15.3259V5.67414C19.3034 3.48087 17.5191 1.69657 15.3259 1.69657H5.67414C3.48087 1.69657 1.69657 3.48091 1.69657 5.67414V15.3259C1.69657 17.5191 3.48091 19.3034 5.67414 19.3034H15.3259Z" />
<path fill-rule="evenodd" clip-rule="evenodd" d="M14.3882 6.61079C15.2287 7.4513 15.7651 8.51699 15.9394 9.6928C16.1549 11.1459 15.7916 12.5959 14.9165 13.7756C14.0415 14.9555 12.7595 15.7239 11.3066 15.9394C11.0332 15.98 10.7598 16 10.4884 16C9.31746 16 8.18186 15.627 7.22414 14.9165C6.04443 14.0414 5.27609 12.7592 5.06061 11.3062C4.84513 9.85317 5.20841 8.40313 6.08342 7.22329C6.95842 6.04345 8.24044 5.27503 9.69339 5.05953C10.2286 4.98016 10.7713 4.98016 11.3066 5.05953C12.4822 5.23384 13.5478 5.77032 14.3882 6.61079ZM8.40438 13.3251C9.15907 13.885 10.0866 14.1175 11.016 13.9795C12.9347 13.6949 14.2641 11.9023 13.9796 9.98351C13.7507 8.43958 12.5596 7.24848 11.0159 7.01957C10.8448 6.99413 10.6723 6.98144 10.5 6.98144C10.3276 6.98144 10.1552 6.99413 9.98402 7.01952C9.05456 7.15738 8.23445 7.64893 7.67465 8.4037C7.11489 9.15847 6.88255 10.0861 7.0204 11.0156C7.15819 11.9451 7.64969 12.7653 8.40438 13.3251Z" />
<path fill-rule="evenodd" clip-rule="evenodd" d="M16.5607 4.43935C16.2813 4.16006 15.8947 4 15.5 4C15.1053 4 14.7187 4.15999 14.4393 4.43935C14.1601 4.71871 14 5.10468 14 5.5C14 5.89532 14.1601 6.28129 14.4393 6.56065C14.7187 6.83994 15.1053 7 15.5 7C15.8947 7 16.2813 6.84001 16.5607 6.56065C16.8399 6.28129 17 5.89467 17 5.5C17 5.10526 16.8399 4.71863 16.5607 4.43935Z"/>
</svg>
