<svg width="40" height="35" viewBox="0 0 40 35" fill="none" xmlns="http://www.w3.org/2000/svg">
<rect x="2.60864" y="2.68344" width="2.60867" height="2.60867" fill="white"/>
<rect x="34.7825" y="2.68344" width="2.60867" height="2.60867" fill="white"/>
<rect x="21.7393" y="2.68344" width="2.60867" height="2.60867" fill="white"/>
<rect x="2.60864" y="20.9443" width="2.60867" height="2.60867" fill="white"/>
<rect x="34.7825" y="20.9443" width="2.60867" height="2.60867" fill="white"/>
<rect x="13.0435" y="28.7704" width="5.21742" height="2.60867" fill="white"/>
<rect x="21.7393" y="28.7704" width="5.21742" height="2.60867" fill="white"/>
<rect x="15.6521" y="2.68344" width="2.60867" height="2.60867" fill="white"/>
<rect x="18.2607" y="5.29211" width="3.47828" height="2.60867" fill="white"/>
<rect x="26.9565" y="26.1617" width="5.21742" height="2.60867" fill="white"/>
<rect x="7.82617" y="26.1617" width="5.21742" height="2.60867" fill="white"/>
<rect x="5.21753" y="23.553" width="2.60867" height="2.60867" fill="white"/>
<rect x="32.1738" y="23.553" width="2.60867" height="2.60867" fill="white"/>
<rect x="18.2607" y="31.3791" width="3.47828" height="2.60867" fill="white"/>
<rect x="5.21753" y="0.0747681" width="10.4348" height="2.60867" fill="white"/>
<rect x="24.3479" y="0.0747681" width="10.4348" height="2.60867" fill="white"/>
<rect y="5.29211" width="2.60867" height="15.6522" fill="white"/>
<rect x="37.3914" y="5.29211" width="2.60867" height="15.6522" fill="white"/>
</svg>
