<svg width="20" height="19" viewBox="0 0 20 19" fill="none" xmlns="http://www.w3.org/2000/svg">
<path fill-rule="evenodd" clip-rule="evenodd" d="M16.7139 2.78613C14.9509 1.02314 12.6166 0.0395586 10.1286 0.00667969C10.0852 0.00274609 10.0422 0 9.99997 0C9.95774 0 9.91473 0.00274609 9.87138 0.00667969C7.38335 0.0395215 5.04906 1.02311 3.28607 2.7861C1.49276 4.57948 0.505127 6.96383 0.505127 9.49996C0.505127 12.0361 1.49276 14.4205 3.2861 16.2138C5.0491 17.9768 7.38335 18.9604 9.87142 18.9932C9.91477 18.9972 9.95778 18.9999 9.99997 18.9999C10.0422 18.9999 10.0852 18.9972 10.1286 18.9932C12.6166 18.9604 14.9509 17.9768 16.7139 16.2138C18.5072 14.4205 19.4948 12.0362 19.4948 9.49996C19.4948 6.96383 18.5072 4.57948 16.7139 2.78613ZM4.08425 3.58428C5.09292 2.57561 6.31401 1.85677 7.64646 1.46838C7.34613 1.81413 7.05419 2.21179 6.78247 2.65247C6.43591 3.21453 6.13584 3.82371 5.88458 4.46782H3.31531C3.5491 4.15859 3.80538 3.86316 4.08425 3.58428ZM5.50454 5.59658H2.59617C2.05359 6.62272 1.73115 7.75538 1.65303 8.9356H4.97903C5.02323 7.78262 5.2021 6.65501 5.50454 5.59658ZM2.5962 13.4034C2.05355 12.3772 1.73111 11.2446 1.65299 10.0644H4.979C5.02319 11.2174 5.20206 12.345 5.5045 13.4034H2.5962ZM3.31531 14.5321C3.54906 14.8414 3.80534 15.1368 4.08429 15.4157C5.093 16.4243 6.31408 17.1432 7.64649 17.5316C7.34617 17.1858 7.05423 16.7882 6.78251 16.3475C6.43591 15.7854 6.13588 15.1763 5.88461 14.5321H3.31531ZM9.43554 14.5322V17.6389C8.96533 17.3312 8.33397 16.7131 7.7432 15.7551C7.50626 15.3709 7.29328 14.9616 7.10503 14.5322H9.43554ZM6.68224 13.4034H9.43557V10.0644H6.10857C6.15666 11.2269 6.35241 12.3576 6.68224 13.4034ZM9.43557 8.9356H6.10857C6.15662 7.77308 6.35238 6.64236 6.68224 5.59658H9.43557V8.9356ZM7.10507 4.46778H9.43557H9.43561V1.36106C8.9654 1.66866 8.33398 2.28679 7.74324 3.24488C7.50629 3.62911 7.29332 4.03835 7.10507 4.46778ZM17.4038 5.59658C17.9464 6.62276 18.2688 7.75538 18.3469 8.9356H15.0209C14.9767 7.78258 14.7978 6.65497 14.4954 5.59658H17.4038ZM16.6847 4.46782C16.4509 4.15859 16.1946 3.86316 15.9157 3.58428C14.907 2.57561 13.6859 1.85677 12.3535 1.46838C12.6539 1.81413 12.9458 2.21179 13.2175 2.65247C13.5641 3.21453 13.8641 3.82371 14.1154 4.46782H16.6847ZM10.5644 1.36106L10.5644 1.36108V4.46778H12.8949C12.7067 4.03835 12.4937 3.62911 12.2567 3.24488C11.666 2.28682 11.0346 1.66873 10.5644 1.36108V1.36106H10.5644ZM13.3177 5.59658H10.5644V8.9356H13.8914C13.8433 7.77315 13.6476 6.64239 13.3177 5.59658ZM13.8913 10.0644C13.8433 11.2269 13.6475 12.3576 13.3177 13.4034H10.5643V10.0644H13.8913ZM10.5644 14.5322V17.6389C11.0346 17.3313 11.666 16.7132 12.2567 15.7551C12.4936 15.3709 12.7066 14.9616 12.8949 14.5322H10.5644ZM15.9157 15.4157C14.907 16.4244 13.686 17.1432 12.3535 17.5316C12.6538 17.1859 12.9458 16.7882 13.2175 16.3475C13.5641 15.7855 13.8641 15.1763 14.1154 14.5322H16.6847C16.4509 14.8414 16.1946 15.1368 15.9157 15.4157ZM14.4954 13.4034H17.4038C17.9463 12.3772 18.2688 11.2446 18.3469 10.0644H15.0209C14.9767 11.2174 14.7978 12.345 14.4954 13.4034Z" fill="black"/>
</svg>
