<svg width="25" height="19" viewBox="0 0 25 19" fill="none" xmlns="http://www.w3.org/2000/svg">
<path fill-rule="evenodd" clip-rule="evenodd" d="M15.7697 0C14.0187 0 12.3146 0.489314 10.8414 1.41501C9.40877 2.31521 8.25335 3.58674 7.5 5.0921L8.93752 5.80162C10.2363 3.20637 12.8543 1.5942 15.7697 1.5942C19.9742 1.5942 23.3947 4.99118 23.3947 9.16667C23.3947 13.3421 19.9742 16.7391 15.7697 16.7391C12.8543 16.7391 10.2363 15.127 8.93752 12.5317L7.5 13.2412C8.25335 14.7466 9.40877 16.0181 10.8414 16.9183C12.3146 17.844 14.0187 18.3333 15.7697 18.3333C20.8593 18.3333 25 14.2212 25 9.16667C25 4.11214 20.8593 0 15.7697 0Z" fill="#231D1F"/>
<path fill-rule="evenodd" clip-rule="evenodd" d="M12.4584 11.332L13.6231 12.3334L17.5 9.00008L13.6231 5.66675L12.4584 6.66817L14.3468 8.29193H0V9.70824H14.3468L12.4584 11.332Z" fill="#231D1F"/>
</svg>
