<svg width="24" height="24" viewBox="0 0 24 24" fill="none" xmlns="http://www.w3.org/2000/svg">
<path fill-rule="evenodd" clip-rule="evenodd" d="M14.629 5.40344C13.3986 4.17305 11.7604 3.49541 10.0162 3.49541C8.27189 3.49541 6.63371 4.17305 5.40332 5.40344L6.46177 6.46188C7.40944 5.51421 8.67176 4.9923 10.0162 4.9923C11.3606 4.9923 12.6229 5.51421 13.5706 6.46188C14.5182 7.40956 15.0401 8.67188 15.0401 10.0163C15.0401 11.3607 14.5182 12.623 13.5706 13.5707L14.629 14.6291C15.8594 13.3987 16.537 11.7605 16.537 10.0163C16.537 8.27201 15.8594 6.63383 14.629 5.40344Z" fill="#231D1F"/>
<path fill-rule="evenodd" clip-rule="evenodd" d="M17.6049 16.5465L23.9803 22.9219L22.9219 23.9804L16.5465 17.6049C14.7917 19.1171 12.509 20.0326 10.0163 20.0326C4.49329 20.0326 0 15.5393 0 10.0163C0 4.49329 4.49329 0 10.0163 0C15.5393 0 20.0325 4.49329 20.0326 10.0163C20.0326 12.509 19.1171 14.7917 17.6049 16.5465ZM10.0163 1.49688C5.31867 1.49688 1.49688 5.31867 1.49688 10.0163C1.49688 14.7139 5.31867 18.5357 10.0163 18.5357C14.7139 18.5357 18.5357 14.7139 18.5357 10.0163C18.5357 5.31867 14.7139 1.49688 10.0163 1.49688Z" fill="#231D1F"/>
</svg>
