<svg width="22" height="19" viewBox="0 0 22 19" fill="none" xmlns="http://www.w3.org/2000/svg">
<path fill-rule="evenodd" clip-rule="evenodd" d="M6.96601 12.6668H6.96502C6.61652 12.6677 6.33333 12.9513 6.33333 13.3C6.33333 13.6492 6.61751 13.9333 6.96667 13.9333H18.4511C18.8009 13.9333 19.0844 14.2168 19.0844 14.5667C19.0844 14.9165 18.8009 15.2 18.4511 15.2H6.96667C5.91903 15.2 5.06667 14.3476 5.06667 13.3C5.06667 12.5204 5.53886 11.8493 6.21194 11.5567L3.92535 1.26667H0.633333C0.283516 1.26667 0 0.983151 0 0.633333C0 0.283516 0.283516 0 0.633333 0H4.43333C4.73021 0 4.98717 0.206163 5.05166 0.495946L5.50439 2.53333H20.9844C21.1832 2.53333 21.3704 2.62668 21.4901 2.78535C21.6097 2.94401 21.648 3.14951 21.5934 3.34067L19.06 12.2073C18.9824 12.4791 18.7338 12.6667 18.4511 12.6667H6.96848L6.96601 12.6668ZM17.9733 11.4L20.1448 3.8H5.78576L7.47465 11.4H17.9733Z" fill="white"/>
<path fill-rule="evenodd" clip-rule="evenodd" d="M8.2335 19C7.18586 19 6.3335 18.1476 6.3335 17.1C6.3335 16.0524 7.18586 15.2 8.2335 15.2C9.28114 15.2 10.1335 16.0524 10.1335 17.1C10.1335 18.1476 9.28114 19 8.2335 19ZM8.86683 17.1C8.86683 16.7508 8.58265 16.4667 8.2335 16.4667C7.88434 16.4667 7.60016 16.7508 7.60016 17.1C7.60016 17.4492 7.88434 17.7333 8.2335 17.7333C8.58265 17.7333 8.86683 17.4492 8.86683 17.1Z" fill="white"/>
<path fill-rule="evenodd" clip-rule="evenodd" d="M17.1847 19C16.137 19 15.2847 18.1476 15.2847 17.1C15.2847 16.0524 16.137 15.2 17.1847 15.2C18.2323 15.2 19.0847 16.0524 19.0847 17.1C19.0847 18.1476 18.2323 19 17.1847 19ZM17.818 17.1C17.818 16.7508 17.5338 16.4667 17.1847 16.4667C16.8355 16.4667 16.5513 16.7508 16.5513 17.1C16.5513 17.4492 16.8355 17.7333 17.1847 17.7333C17.5338 17.7333 17.818 17.4492 17.818 17.1Z" fill="white"/>
</svg>
