<svg width="54" height="57" viewBox="0 0 54 57" fill="none" xmlns="http://www.w3.org/2000/svg">
<rect x="17.5195" y="32.1985" width="3.50382" height="3.69847" fill="white"/>
<rect x="32.9775" y="32.1985" width="3.50382" height="3.69847" fill="white"/>
<rect x="7.00781" y="35.897" width="10.5115" height="3.69847" fill="white"/>
<rect x="21.2295" y="35.897" width="11.7481" height="3.69847" fill="white"/>
<rect x="36.4805" y="35.897" width="10.5115" height="3.69847" fill="white"/>
<rect x="10.5117" width="3.50382" height="3.69847" fill="white"/>
<rect x="19.9922" width="3.50382" height="3.69847" fill="white"/>
<rect x="30.5039" width="3.50382" height="3.69847" fill="white"/>
<rect x="39.9844" width="3.50382" height="3.69847" fill="white"/>
<path fill-rule="evenodd" clip-rule="evenodd" d="M50.4783 24.8015V32.2362H46.9565V35.9537H50.4783V44.6276H3.52171V35.9537H7.04352V32.2362H3.52171V24.8015H0V53.3015H3.52171V48.345H50.4783V53.3015H54V24.8015H50.4783Z" fill="white"/>
<rect x="3.50391" y="53.3015" width="46.9924" height="3.69847" fill="white"/>
<path fill-rule="evenodd" clip-rule="evenodd" d="M43.4474 21.0719V7.39697H39.923V21.0719H34.049V7.39697H30.5245V21.0719H23.4757V7.39697H19.9512V21.0719H14.0772V7.39697H10.5528V21.0719H3.50391V24.8016H50.4963V21.0719H43.4474Z" fill="white"/>
</svg>
