<svg width="54" height="57" viewBox="0 0 54 57" fill="none" xmlns="http://www.w3.org/2000/svg">
<rect x="6.9502" y="7.24609" width="3.47525" height="3.62303" fill="#231D1F"/>
<path fill-rule="evenodd" clip-rule="evenodd" d="M7.07045 26.8555V23.1707H3.53517V18.2578H0V37.9096H3.53517V26.8555H7.07045Z" fill="white"/>
<rect x="3.53516" y="10.8884" width="3.53517" height="7.36951" fill="white"/>
<rect x="7.07031" y="45.2793" width="3.53517" height="3.6847" fill="white"/>
<rect x="3.53516" y="37.9097" width="3.53517" height="7.36951" fill="white"/>
<rect x="32.8291" y="7.36157" width="3.5344" height="7.36149" fill="white"/>
<rect x="10.4443" y="3.68066" width="7.06892" height="3.68069" fill="white"/>
<rect x="43.4326" y="7.36157" width="3.5344" height="3.68069" fill="white"/>
<path fill-rule="evenodd" clip-rule="evenodd" d="M36.3629 3.68069V0H17.5127V3.68069H21.0471V7.36149H24.5815V3.68069H29.2941V7.36149H32.8285V3.68069H36.3629Z" fill="white"/>
<rect x="36.3633" y="3.68066" width="7.06892" height="3.68069" fill="white"/>
<rect x="47.0498" y="11.1477" width="3.47525" height="7.24606" fill="white"/>
<rect x="47.0498" y="37.9023" width="3.47525" height="7.24606" fill="white"/>
<rect x="43.5742" y="45.4272" width="3.47525" height="3.62303" fill="white"/>
<rect x="17.6436" y="7.52466" width="3.47525" height="7.24606" fill="white"/>
<path fill-rule="evenodd" clip-rule="evenodd" d="M40.0204 27.0587V14.7708H36.5057V30.745H17.7615V14.7708H14.2468V27.0587H7.21777V30.745H14.2468V41.8041H17.7615V34.4314H36.5057V41.8041H40.0204V30.745H47.0495V27.0587H40.0204Z" fill="white"/>
<rect x="17.6436" y="41.5254" width="3.47525" height="7.24606" fill="white"/>
<rect x="36.5176" y="48.9348" width="7.03816" height="3.68069" fill="white"/>
<rect x="10.7119" y="48.9348" width="7.03816" height="3.68069" fill="white"/>
<rect x="32.999" y="41.5732" width="3.51902" height="7.36149" fill="white"/>
<path fill-rule="evenodd" clip-rule="evenodd" d="M32.9992 48.9348H29.4802V52.6156H24.788V48.9348H21.269V52.6156H17.75V56.2963H36.5182V52.6156H32.9992V48.9348Z" fill="white"/>
<path fill-rule="evenodd" clip-rule="evenodd" d="M50.5251 18.3938V23.2709H47.0498V26.9289H50.5251V37.9024H54.0003V26.9289V23.2709V18.3938H50.5251Z" fill="white"/>
</svg>
