<svg width="54" height="48" viewBox="0 0 54 48" fill="none" xmlns="http://www.w3.org/2000/svg">
<rect x="3.44727" y="3.90479" width="3.44681" height="3.60451" fill="white"/>
<rect x="47.1064" y="3.90479" width="3.44681" height="3.60451" fill="white"/>
<rect x="29.2979" y="3.90479" width="3.44681" height="3.60451" fill="white"/>
<rect x="3.44727" y="29.7371" width="3.44681" height="3.60451" fill="white"/>
<rect x="47.1064" y="29.7371" width="3.44681" height="3.60451" fill="white"/>
<rect x="17.8086" y="40.5508" width="6.89362" height="3.60451" fill="white"/>
<rect x="29.2979" y="40.5508" width="6.89362" height="3.60451" fill="white"/>
<rect x="21.2549" y="3.90479" width="3.44681" height="3.60451" fill="white"/>
<rect x="24.7021" y="7.50928" width="4.59574" height="3.60451" fill="white"/>
<rect x="36.1914" y="36.9463" width="6.89362" height="3.60451" fill="white"/>
<rect x="10.915" y="36.9463" width="6.89362" height="3.60451" fill="white"/>
<rect x="6.89355" y="33.3418" width="3.44681" height="3.60451" fill="white"/>
<rect x="43.6592" y="33.3418" width="3.44681" height="3.60451" fill="white"/>
<rect x="24.7021" y="44.1553" width="4.59574" height="3.60451" fill="white"/>
<rect x="6.89355" y="0.300293" width="14.3617" height="3.60451" fill="white"/>
<rect x="32.7451" y="0.300293" width="14.3617" height="3.60451" fill="white"/>
<rect y="7.50928" width="3.44681" height="22.2278" fill="white"/>
<rect x="50.5527" y="7.50928" width="3.44681" height="22.2278" fill="white"/>
</svg>
