<svg width="35" height="35" viewBox="0 0 35 35" fill="none" xmlns="http://www.w3.org/2000/svg">
<path d="M1.2364 17.9645L17.4999 1.70101L33.7633 17.9645L17.4999 34.2279L1.2364 17.9645Z" stroke="#9B9B9B"/>
<path fill-rule="evenodd" clip-rule="evenodd" d="M21.6234 9.00375L19.2249 9C16.5302 9 14.7888 10.7387 14.7888 13.4298V15.4723H12.3771C12.1688 15.4723 12 15.6367 12 15.8395V18.7988C12 19.0016 12.1689 19.1658 12.3771 19.1658H14.7888V26.633C14.7888 26.8358 14.9575 27 15.1659 27H18.3124C18.5208 27 18.6896 26.8356 18.6896 26.633V19.1658H21.5093C21.7177 19.1658 21.8865 19.0016 21.8865 18.7988L21.8876 15.8395C21.8876 15.7421 21.8478 15.6489 21.7772 15.5799C21.7066 15.511 21.6103 15.4723 21.5103 15.4723H18.6896V13.7409C18.6896 12.9087 18.8933 12.4862 20.0073 12.4862L21.623 12.4857C21.8312 12.4857 22 12.3212 22 12.1186V9.37077C22 9.16835 21.8314 9.00412 21.6234 9.00375Z" fill="#9B9B9B"/>
</svg>
