<svg width="35" height="35" viewBox="0 0 35 35" fill="none" xmlns="http://www.w3.org/2000/svg">
<path d="M1.2364 17.9645L17.4999 1.70101L33.7633 17.9645L17.4999 34.2279L1.2364 17.9645Z" stroke="#9B9B9B"/>
<path fill-rule="evenodd" clip-rule="evenodd" d="M25.8992 22.9342C25.8762 22.8839 25.8548 22.8422 25.8349 22.8087C25.5052 22.2063 24.8753 21.4668 23.9454 20.5901L23.9257 20.57L23.9159 20.5602L23.906 20.5501H23.896C23.474 20.1419 23.2067 19.8674 23.0948 19.7268C22.89 19.4591 22.8441 19.1882 22.9561 18.9136C23.0351 18.7062 23.3321 18.2681 23.8464 17.5988C24.1169 17.244 24.3311 16.9598 24.4893 16.7456C25.6304 15.2063 26.125 14.2227 25.9733 13.7943L25.9143 13.6942C25.8747 13.634 25.7725 13.5788 25.6078 13.5286C25.4428 13.4784 25.2318 13.4701 24.9745 13.5035L22.1256 13.5235C22.0794 13.5069 22.0135 13.5085 21.9276 13.5286C21.8419 13.5487 21.799 13.5588 21.799 13.5588L21.7494 13.5839L21.7101 13.6141C21.6771 13.6341 21.6408 13.6692 21.6012 13.7194C21.5618 13.7694 21.5288 13.8282 21.5025 13.8951C21.1923 14.7048 20.8397 15.4577 20.4439 16.1536C20.1998 16.5686 19.9757 16.9282 19.7711 17.2328C19.5667 17.5372 19.3952 17.7615 19.2568 17.9052C19.1182 18.0491 18.9931 18.1644 18.8808 18.2515C18.7686 18.3386 18.683 18.3754 18.6237 18.362C18.5643 18.3485 18.5084 18.3351 18.4554 18.3218C18.3631 18.2615 18.2889 18.1796 18.2329 18.0758C18.1767 17.9721 18.1389 17.8416 18.1191 17.6843C18.0994 17.5269 18.0878 17.3916 18.0845 17.2778C18.0814 17.1641 18.0828 17.0033 18.0895 16.7959C18.0964 16.5883 18.0994 16.4479 18.0994 16.3743C18.0994 16.1199 18.1043 15.8439 18.1141 15.5461C18.1241 15.2483 18.1322 15.0124 18.1389 14.8385C18.1457 14.6645 18.1488 14.4804 18.1488 14.2864C18.1488 14.0923 18.1371 13.9401 18.1141 13.8296C18.0914 13.7193 18.0565 13.6122 18.0105 13.5084C17.9643 13.4046 17.8966 13.3244 17.8077 13.2674C17.7187 13.2106 17.608 13.1654 17.4763 13.1319C17.1268 13.0516 16.6816 13.0082 16.1407 13.0014C14.9141 12.9881 14.126 13.0684 13.7764 13.2424C13.638 13.316 13.5126 13.4164 13.4006 13.5435C13.2818 13.6908 13.2653 13.7711 13.351 13.7844C13.7467 13.8445 14.0269 13.9884 14.1918 14.2159L14.2512 14.3365C14.2975 14.4235 14.3436 14.5775 14.3898 14.7983C14.4359 15.0191 14.4657 15.2633 14.4788 15.5309C14.5117 16.0195 14.5117 16.4377 14.4788 16.7857C14.4458 17.1338 14.4146 17.4047 14.3848 17.5988C14.355 17.7929 14.3106 17.9502 14.2512 18.0706C14.1918 18.191 14.1523 18.2646 14.1325 18.2914C14.1127 18.3181 14.0962 18.3349 14.0831 18.3415C13.9974 18.3749 13.9082 18.3919 13.8159 18.3919C13.7235 18.3919 13.6115 18.345 13.4796 18.2512C13.3478 18.1575 13.2109 18.0287 13.0691 17.8647C12.9273 17.7007 12.7674 17.4715 12.5892 17.1771C12.4112 16.8827 12.2266 16.5347 12.0353 16.1332L11.8771 15.842C11.7781 15.6547 11.643 15.3819 11.4715 15.024C11.3 14.6659 11.1483 14.3195 11.0165 13.9849C10.9638 13.8443 10.8846 13.7373 10.7791 13.6637L10.7296 13.6335C10.6966 13.6068 10.6438 13.5784 10.5713 13.5482C10.4987 13.518 10.423 13.4963 10.3438 13.483L7.63324 13.503C7.35626 13.503 7.16832 13.5666 7.06937 13.6938L7.02976 13.754C7.00998 13.7875 7 13.841 7 13.9147C7 13.9883 7.01978 14.0786 7.05939 14.1856C7.45508 15.1293 7.88538 16.0394 8.3503 16.916C8.81522 17.7927 9.21922 18.4989 9.56207 19.0339C9.90499 19.5694 10.2545 20.0747 10.6107 20.5497C10.9668 21.0249 11.2026 21.3294 11.3179 21.4632C11.4334 21.5972 11.5241 21.6974 11.5901 21.7643L11.8374 22.0052C11.9957 22.1658 12.2281 22.3582 12.5348 22.5824C12.8415 22.8067 13.1811 23.0274 13.5538 23.2451C13.9264 23.4624 14.36 23.6398 14.8547 23.7769C15.3493 23.9142 15.8307 23.9693 16.299 23.9427H17.4366C17.6674 23.9225 17.8422 23.8489 17.961 23.7218L18.0003 23.6715C18.0268 23.6316 18.0516 23.5695 18.0745 23.486C18.0976 23.4024 18.1091 23.3102 18.1091 23.21C18.1023 22.9223 18.1239 22.663 18.1733 22.4321C18.2226 22.2014 18.2788 22.0273 18.3416 21.9102C18.4045 21.7931 18.4753 21.6943 18.5542 21.6142C18.6333 21.5339 18.6896 21.4853 18.7227 21.4686C18.7555 21.4517 18.7818 21.4403 18.8016 21.4334C18.9598 21.3799 19.1461 21.4318 19.3607 21.5892C19.575 21.7464 19.7761 21.9406 19.9642 22.1714C20.1521 22.4024 20.378 22.6615 20.6417 22.9493C20.9056 23.2371 21.1364 23.451 21.3342 23.5918L21.532 23.7122C21.664 23.7926 21.8355 23.8662 22.0466 23.9331C22.2573 24 22.4419 24.0167 22.6004 23.9833L25.1328 23.9432C25.3833 23.9432 25.5782 23.9011 25.7164 23.8176C25.855 23.734 25.9372 23.6418 25.9638 23.5416C25.9903 23.4412 25.9917 23.3274 25.9688 23.2001C25.9454 23.0732 25.9222 22.9844 25.8992 22.9342Z" fill="#9B9B9B"/>
</svg>
