<svg width="35" height="35" viewBox="0 0 35 35" fill="none" xmlns="http://www.w3.org/2000/svg">
<path d="M1.2364 17.9645L17.4999 1.70101L33.7633 17.9645L17.4999 34.2279L1.2364 17.9645Z" stroke="#9B9B9B"/>
<path fill-rule="evenodd" clip-rule="evenodd" d="M14.3232 10H21.6768C24.0606 10 26 11.9394 26 14.3232V21.6768C26 24.0606 24.0606 26 21.6768 26H14.3232C11.9394 26 10 24.0606 10 21.6768V14.3232C10 11.9394 11.9394 10 14.3232 10ZM21.6768 24.7074C23.3479 24.7074 24.7074 23.3479 24.7074 21.6768V14.3232C24.7074 12.6521 23.3479 11.2926 21.6768 11.2926H14.3232C12.6521 11.2926 11.2926 12.6521 11.2926 14.3232V21.6768C11.2926 23.3479 12.6521 24.7074 14.3232 24.7074H21.6768Z" fill="#9B9B9B"/>
<path fill-rule="evenodd" clip-rule="evenodd" d="M20.8278 15.1715C21.439 15.7828 21.8291 16.5578 21.9559 17.4129C22.1126 18.4697 21.8484 19.5243 21.212 20.3823C20.5757 21.2404 19.6433 21.7992 18.5866 21.9559C18.3878 21.9854 18.1889 22 17.9915 22C17.14 22 16.3141 21.7287 15.6176 21.212C14.7596 20.5756 14.2008 19.6431 14.0441 18.5863C13.8874 17.5296 14.1516 16.475 14.7879 15.6169C15.4243 14.7589 16.3567 14.2 17.4134 14.0433C17.8026 13.9856 18.1973 13.9856 18.5866 14.0433C19.4416 14.1701 20.2166 14.5602 20.8278 15.1715ZM16.4759 20.0546C17.0248 20.4618 17.6993 20.6309 18.3753 20.5305C19.7707 20.3236 20.7375 19.0199 20.5306 17.6244C20.3641 16.5015 19.4979 15.6353 18.3752 15.4688C18.2507 15.4503 18.1253 15.441 18 15.441C17.8746 15.441 17.7492 15.4503 17.6247 15.4687C16.9488 15.569 16.3523 15.9265 15.9452 16.4754C15.5381 17.0243 15.3691 17.699 15.4694 18.375C15.5696 19.051 15.9271 19.6475 16.4759 20.0546Z" fill="#9B9B9B"/>
<path fill-rule="evenodd" clip-rule="evenodd" d="M22.7071 13.2929C22.5209 13.1067 22.2631 13 22 13C21.7369 13 21.4791 13.1067 21.2929 13.2929C21.1067 13.4791 21 13.7365 21 14C21 14.2635 21.1067 14.5209 21.2929 14.7071C21.4791 14.8933 21.7369 15 22 15C22.2631 15 22.5209 14.8933 22.7071 14.7071C22.8933 14.5209 23 14.2631 23 14C23 13.7368 22.8933 13.4791 22.7071 13.2929Z" fill="#9B9B9B"/>
</svg>
