<svg width="20" height="20" viewBox="0 0 20 20" fill="none" xmlns="http://www.w3.org/2000/svg">
<path fill-rule="evenodd" clip-rule="evenodd" d="M12.191 4.50286C11.1657 3.47754 9.80052 2.91284 8.34696 2.91284C6.89341 2.91284 5.52825 3.47754 4.50293 4.50286L5.38497 5.3849C6.1747 4.59517 7.22663 4.16024 8.34696 4.16024C9.4673 4.16024 10.5192 4.59517 11.309 5.3849C12.0987 6.17463 12.5336 7.22656 12.5336 8.3469C12.5336 9.46723 12.0987 10.5192 11.309 11.3089L12.191 12.1909C13.2163 11.1656 13.781 9.80045 13.781 8.3469C13.781 6.89334 13.2164 5.52818 12.191 4.50286Z" fill="white"/>
<path fill-rule="evenodd" clip-rule="evenodd" d="M14.6708 13.7887L19.9836 19.1016L19.1016 19.9837L13.7887 14.6708C12.3264 15.9309 10.4242 16.6938 8.3469 16.6938C3.74441 16.6938 0 12.9494 0 8.3469C0 3.74441 3.74441 0 8.3469 0C12.9494 0 16.6938 3.74441 16.6938 8.3469C16.6938 10.4242 15.9309 12.3264 14.6708 13.7887ZM8.3469 1.2474C4.43222 1.2474 1.2474 4.43222 1.2474 8.3469C1.2474 12.2616 4.43222 15.4464 8.3469 15.4464C12.2616 15.4464 15.4464 12.2616 15.4464 8.3469C15.4464 4.43222 12.2616 1.2474 8.3469 1.2474Z" fill="white"/>
</svg>
